<svg width="428" height="294" viewBox="0 0 428 294" fill="none" xmlns="http://www.w3.org/2000/svg">
<g filter="url(#filter0_d_511_3599)">
<rect x="16" y="23" width="352.216" height="218.085" rx="13.5738" fill="white"/>
<path d="M40.7527 57.1704V48.2858H46.6353V49.8345H42.6311V51.9515H46.2448V53.5003H42.6311V57.1704H40.7527ZM50.3857 57.3006C49.7118 57.3006 49.129 57.1574 48.6374 56.8711C48.1486 56.5819 47.7712 56.1799 47.5051 55.6651C47.239 55.1474 47.106 54.5472 47.106 53.8647C47.106 53.1764 47.239 52.5748 47.5051 52.06C47.7712 51.5423 48.1486 51.1403 48.6374 50.854C49.129 50.5648 49.7118 50.4202 50.3857 50.4202C51.0595 50.4202 51.6409 50.5648 52.1296 50.854C52.6213 51.1403 53.0002 51.5423 53.2662 52.06C53.5323 52.5748 53.6653 53.1764 53.6653 53.8647C53.6653 54.5472 53.5323 55.1474 53.2662 55.6651C53.0002 56.1799 52.6213 56.5819 52.1296 56.8711C51.6409 57.1574 51.0595 57.3006 50.3857 57.3006ZM50.3943 55.8689C50.7009 55.8689 50.9569 55.7822 51.1622 55.6087C51.3675 55.4322 51.5223 55.1922 51.6264 54.8885C51.7334 54.5848 51.7869 54.2392 51.7869 53.8517C51.7869 53.4641 51.7334 53.1185 51.6264 52.8148C51.5223 52.5112 51.3675 52.2711 51.1622 52.0947C50.9569 51.9183 50.7009 51.8301 50.3943 51.8301C50.0849 51.8301 49.8246 51.9183 49.6135 52.0947C49.4052 52.2711 49.2476 52.5112 49.1406 52.8148C49.0365 53.1185 48.9844 53.4641 48.9844 53.8517C48.9844 54.2392 49.0365 54.5848 49.1406 54.8885C49.2476 55.1922 49.4052 55.4322 49.6135 55.6087C49.8246 55.7822 50.0849 55.8689 50.3943 55.8689ZM56.7151 48.2858V57.1704H54.867V48.2858H56.7151ZM61.2062 57.3006C60.5324 57.3006 59.9496 57.1574 59.4579 56.8711C58.9692 56.5819 58.5917 56.1799 58.3257 55.6651C58.0596 55.1474 57.9266 54.5472 57.9266 53.8647C57.9266 53.1764 58.0596 52.5748 58.3257 52.06C58.5917 51.5423 58.9692 51.1403 59.4579 50.854C59.9496 50.5648 60.5324 50.4202 61.2062 50.4202C61.8801 50.4202 62.4614 50.5648 62.9502 50.854C63.4419 51.1403 63.8207 51.5423 64.0868 52.06C64.3529 52.5748 64.4859 53.1764 64.4859 53.8647C64.4859 54.5472 64.3529 55.1474 64.0868 55.6651C63.8207 56.1799 63.4419 56.5819 62.9502 56.8711C62.4614 57.1574 61.8801 57.3006 61.2062 57.3006ZM61.2149 55.8689C61.5215 55.8689 61.7774 55.7822 61.9828 55.6087C62.1881 55.4322 62.3429 55.1922 62.447 54.8885C62.554 54.5848 62.6075 54.2392 62.6075 53.8517C62.6075 53.4641 62.554 53.1185 62.447 52.8148C62.3429 52.5112 62.1881 52.2711 61.9828 52.0947C61.7774 51.9183 61.5215 51.8301 61.2149 51.8301C60.9055 51.8301 60.6452 51.9183 60.434 52.0947C60.2258 52.2711 60.0682 52.5112 59.9612 52.8148C59.8571 53.1185 59.805 53.4641 59.805 53.8517C59.805 54.2392 59.8571 54.5848 59.9612 54.8885C60.0682 55.1922 60.2258 55.4322 60.434 55.6087C60.6452 55.7822 60.9055 55.8689 61.2149 55.8689ZM66.8351 57.1704L65.0217 50.5069H66.8915L67.924 54.984H67.9847L69.0606 50.5069H70.8956L71.9889 54.9579H72.0453L73.0604 50.5069H74.9258L73.1168 57.1704H71.1603L70.015 52.9797H69.9325L68.7873 57.1704H66.8351ZM78.7814 57.3006C78.096 57.3006 77.506 57.1617 77.0114 56.8841C76.5198 56.6036 76.1409 56.2073 75.8748 55.6954C75.6087 55.1806 75.4757 54.5718 75.4757 53.869C75.4757 53.1836 75.6087 52.582 75.8748 52.0643C76.1409 51.5466 76.5154 51.1432 76.9984 50.854C77.4843 50.5648 78.054 50.4202 78.7077 50.4202C79.1473 50.4202 79.5565 50.491 79.9354 50.6327C80.3171 50.7716 80.6497 50.9812 80.9332 51.2618C81.2195 51.5423 81.4422 51.8951 81.6012 52.3203C81.7603 52.7425 81.8398 53.2371 81.8398 53.804V54.3115H76.2132V53.1662H80.1002C80.1002 52.9002 80.0424 52.6645 79.9267 52.4591C79.811 52.2538 79.6505 52.0933 79.4452 51.9776C79.2427 51.859 79.007 51.7997 78.738 51.7997C78.4575 51.7997 78.2088 51.8648 77.9919 51.9949C77.7778 52.1222 77.6101 52.2943 77.4886 52.5112C77.3672 52.7252 77.305 52.9638 77.3021 53.227V54.3159C77.3021 54.6456 77.3628 54.9304 77.4843 55.1705C77.6086 55.4105 77.7836 55.5956 78.0092 55.7258C78.2348 55.8559 78.5023 55.921 78.8118 55.921C79.0171 55.921 79.2051 55.8921 79.3757 55.8342C79.5464 55.7764 79.6924 55.6896 79.8139 55.5739C79.9354 55.4583 80.0279 55.3165 80.0915 55.1488L81.8008 55.2616C81.714 55.6723 81.5362 56.0309 81.2672 56.3375C81.0011 56.6411 80.657 56.8783 80.2347 57.0489C79.8153 57.2167 79.3309 57.3006 78.7814 57.3006ZM83.0459 57.1704V50.5069H84.8375V51.6696H84.907C85.0284 51.256 85.2323 50.9436 85.5186 50.7325C85.805 50.5185 86.1347 50.4115 86.5078 50.4115C86.6003 50.4115 86.7001 50.4173 86.8071 50.4288C86.9141 50.4404 87.0081 50.4563 87.0891 50.4766V52.1164C87.0023 52.0904 86.8823 52.0672 86.729 52.047C86.5757 52.0267 86.4355 52.0166 86.3082 52.0166C86.0363 52.0166 85.7934 52.0759 85.5794 52.1945C85.3683 52.3102 85.2005 52.4721 85.0761 52.6804C84.9547 52.8886 84.8939 53.1286 84.8939 53.4005V57.1704H83.0459Z" fill="black"/>
<path d="M40.834 69.3638H40.1656L42.0988 64.0988H42.7569L44.6902 69.3638H44.0218L42.4484 64.9317H42.4073L40.834 69.3638ZM41.0808 67.3071H43.775V67.8727H41.0808V67.3071ZM46.0347 66.9884V69.3638H45.428V65.415H46.0141V66.032H46.0655C46.1581 65.8315 46.2986 65.6704 46.4871 65.5487C46.6757 65.4253 46.919 65.3636 47.2172 65.3636C47.4846 65.3636 47.7185 65.4185 47.9191 65.5281C48.1196 65.6361 48.2756 65.8007 48.387 66.0217C48.4984 66.2411 48.5541 66.5188 48.5541 66.8547V69.3638H47.9473V66.8958C47.9473 66.5856 47.8668 66.3439 47.7057 66.1708C47.5446 65.996 47.3235 65.9086 47.0424 65.9086C46.8488 65.9086 46.6757 65.9506 46.5231 66.0346C46.3723 66.1186 46.2532 66.2411 46.1658 66.4022C46.0784 66.5633 46.0347 66.7587 46.0347 66.9884ZM50.8247 69.4563C50.5745 69.4563 50.3474 69.4092 50.1434 69.3149C49.9395 69.2189 49.7775 69.081 49.6576 68.901C49.5376 68.7194 49.4776 68.5 49.4776 68.2429C49.4776 68.0167 49.5222 67.8333 49.6113 67.6928C49.7004 67.5505 49.8195 67.4391 49.9686 67.3586C50.1177 67.278 50.2823 67.218 50.4622 67.1786C50.6439 67.1375 50.8264 67.1049 51.0098 67.0809C51.2497 67.0501 51.4443 67.0269 51.5934 67.0115C51.7442 66.9944 51.8539 66.9661 51.9224 66.9267C51.9927 66.8872 52.0278 66.8187 52.0278 66.721V66.7004C52.0278 66.4468 51.9584 66.2497 51.8196 66.1091C51.6825 65.9686 51.4743 65.8983 51.1949 65.8983C50.9053 65.8983 50.6782 65.9618 50.5136 66.0886C50.3491 66.2154 50.2334 66.3508 50.1666 66.4948L49.5907 66.2891C49.6936 66.0492 49.8307 65.8624 50.0021 65.7287C50.1752 65.5933 50.3637 65.499 50.5676 65.4459C50.7733 65.391 50.9755 65.3636 51.1743 65.3636C51.3012 65.3636 51.4468 65.379 51.6114 65.4099C51.7776 65.439 51.9379 65.4999 52.0921 65.5924C52.2481 65.685 52.3775 65.8246 52.4803 66.0115C52.5831 66.1983 52.6345 66.4485 52.6345 66.7621V69.3638H52.0278V68.829H51.997C51.9559 68.9147 51.8873 69.0064 51.7913 69.1041C51.6953 69.2018 51.5677 69.2849 51.4083 69.3535C51.2489 69.422 51.0544 69.4563 50.8247 69.4563ZM50.9173 68.9113C51.1572 68.9113 51.3594 68.8642 51.524 68.7699C51.6902 68.6757 51.8153 68.554 51.8993 68.4049C51.985 68.2558 52.0278 68.0989 52.0278 67.9344V67.3791C52.0021 67.41 51.9456 67.4382 51.8582 67.464C51.7725 67.4879 51.6731 67.5094 51.56 67.5282C51.4486 67.5454 51.3397 67.5608 51.2335 67.5745C51.1289 67.5865 51.0441 67.5968 50.979 67.6053C50.8213 67.6259 50.6739 67.6593 50.5368 67.7056C50.4014 67.7502 50.2917 67.8179 50.2077 67.9087C50.1255 67.9978 50.0843 68.1195 50.0843 68.2738C50.0843 68.4846 50.1623 68.6439 50.3183 68.7519C50.4759 68.8582 50.6756 68.9113 50.9173 68.9113ZM54.3486 64.0988V69.3638H53.7419V64.0988H54.3486ZM55.4598 69.3638V65.415H56.0665V69.3638H55.4598ZM55.7683 64.7569C55.6501 64.7569 55.5481 64.7166 55.4624 64.6361C55.3784 64.5555 55.3364 64.4587 55.3364 64.3456C55.3364 64.2325 55.3784 64.1356 55.4624 64.0551C55.5481 63.9745 55.6501 63.9343 55.7683 63.9343C55.8866 63.9343 55.9877 63.9745 56.0717 64.0551C56.1574 64.1356 56.2002 64.2325 56.2002 64.3456C56.2002 64.4587 56.1574 64.5555 56.0717 64.6361C55.9877 64.7166 55.8866 64.7569 55.7683 64.7569ZM58.8951 65.415V65.9292H56.8487V65.415H58.8951ZM57.4451 64.469H58.0518V68.2326C58.0518 68.404 58.0767 68.5325 58.1264 68.6182C58.1778 68.7022 58.2429 68.7588 58.3218 68.7879C58.4023 68.8153 58.4872 68.829 58.5763 68.829C58.6431 68.829 58.698 68.8256 58.7408 68.8188C58.7837 68.8102 58.8179 68.8033 58.8436 68.7982L58.967 69.3432C58.9259 69.3586 58.8685 69.3741 58.7948 69.3895C58.7211 69.4066 58.6277 69.4152 58.5146 69.4152C58.3432 69.4152 58.1752 69.3783 58.0107 69.3046C57.8479 69.2309 57.7125 69.1187 57.6045 68.9679C57.4983 68.817 57.4451 68.6268 57.4451 68.3972V64.469ZM59.8077 69.3638V65.415H60.4144V69.3638H59.8077ZM60.1162 64.7569C59.9979 64.7569 59.896 64.7166 59.8103 64.6361C59.7263 64.5555 59.6843 64.4587 59.6843 64.3456C59.6843 64.2325 59.7263 64.1356 59.8103 64.0551C59.896 63.9745 59.9979 63.9343 60.1162 63.9343C60.2344 63.9343 60.3356 63.9745 60.4195 64.0551C60.5052 64.1356 60.5481 64.2325 60.5481 64.3456C60.5481 64.4587 60.5052 64.5555 60.4195 64.6361C60.3356 64.7166 60.2344 64.7569 60.1162 64.7569ZM63.1298 69.446C62.7596 69.446 62.4408 69.3586 62.1735 69.1838C61.9061 69.009 61.7004 68.7682 61.5565 68.4614C61.4125 68.1546 61.3405 67.8042 61.3405 67.41C61.3405 67.0089 61.4142 66.655 61.5616 66.3482C61.7107 66.0397 61.9181 65.7989 62.1837 65.6258C62.4511 65.451 62.763 65.3636 63.1195 65.3636C63.3972 65.3636 63.6474 65.415 63.8702 65.5179C64.093 65.6207 64.2755 65.7647 64.4178 65.9498C64.56 66.1349 64.6483 66.3508 64.6826 66.5976H64.0758C64.0296 66.4176 63.9267 66.2583 63.7673 66.1194C63.6097 65.9789 63.3972 65.9086 63.1298 65.9086C62.8933 65.9086 62.6859 65.9703 62.5077 66.0937C62.3311 66.2154 62.1932 66.3877 62.0938 66.6105C61.9961 66.8315 61.9472 67.0912 61.9472 67.3894C61.9472 67.6945 61.9952 67.9601 62.0912 68.1863C62.1889 68.4126 62.326 68.5882 62.5025 68.7134C62.6808 68.8385 62.8899 68.901 63.1298 68.901C63.2875 68.901 63.4306 68.8736 63.5591 68.8188C63.6877 68.7639 63.7965 68.6851 63.8856 68.5822C63.9747 68.4794 64.0381 68.356 64.0758 68.2121H64.6826C64.6483 68.4451 64.5634 68.6551 64.428 68.8419C64.2944 69.027 64.117 69.1744 63.8959 69.2841C63.6765 69.392 63.4211 69.446 63.1298 69.446ZM67.3999 64.6644V64.0988H71.3486V64.6644H69.693V69.3638H69.0555V64.6644H67.3999ZM72.857 66.9884V69.3638H72.2503V64.0988H72.857V66.032H72.9084C73.001 65.8281 73.1398 65.6661 73.3249 65.5461C73.5117 65.4245 73.7602 65.3636 74.0704 65.3636C74.3395 65.3636 74.5752 65.4176 74.7774 65.5256C74.9796 65.6318 75.1365 65.7955 75.2479 66.0166C75.361 66.236 75.4175 66.5153 75.4175 66.8547V69.3638H74.8108V66.8958C74.8108 66.5822 74.7294 66.3397 74.5666 66.1683C74.4055 65.9952 74.1818 65.9086 73.8956 65.9086C73.6968 65.9086 73.5186 65.9506 73.3609 66.0346C73.2049 66.1186 73.0815 66.2411 72.9907 66.4022C72.9016 66.5633 72.857 66.7587 72.857 66.9884ZM76.5275 69.3638V65.415H77.1342V69.3638H76.5275ZM76.836 64.7569C76.7177 64.7569 76.6157 64.7166 76.53 64.6361C76.4461 64.5555 76.4041 64.4587 76.4041 64.3456C76.4041 64.2325 76.4461 64.1356 76.53 64.0551C76.6157 63.9745 76.7177 63.9343 76.836 63.9343C76.9542 63.9343 77.0553 63.9745 77.1393 64.0551C77.225 64.1356 77.2679 64.2325 77.2679 64.3456C77.2679 64.4587 77.225 64.5555 77.1393 64.6361C77.0553 64.7166 76.9542 64.7569 76.836 64.7569ZM81.0424 66.2994L80.4974 66.4536C80.4631 66.3628 80.4126 66.2745 80.3457 66.1888C80.2806 66.1014 80.1915 66.0295 80.0784 65.9729C79.9653 65.9163 79.8204 65.8881 79.6439 65.8881C79.4023 65.8881 79.2009 65.9438 79.0398 66.0552C78.8804 66.1648 78.8007 66.3045 78.8007 66.4742C78.8007 66.625 78.8555 66.7441 78.9652 66.8315C79.0749 66.9189 79.2463 66.9918 79.4794 67.0501L80.0655 67.194C80.4186 67.2797 80.6817 67.4108 80.8548 67.5874C81.0279 67.7622 81.1144 67.9875 81.1144 68.2635C81.1144 68.4897 81.0493 68.6919 80.919 68.8702C80.7905 69.0484 80.6105 69.189 80.3792 69.2918C80.1478 69.3946 79.8787 69.446 79.5719 69.446C79.1692 69.446 78.8358 69.3586 78.5719 69.1838C78.308 69.009 78.1409 68.7536 78.0706 68.4177L78.6464 68.2738C78.7013 68.4863 78.805 68.6457 78.9575 68.7519C79.1118 68.8582 79.3131 68.9113 79.5616 68.9113C79.8444 68.9113 80.0689 68.8513 80.2352 68.7314C80.4032 68.6097 80.4871 68.464 80.4871 68.2943C80.4871 68.1572 80.4391 68.0424 80.3432 67.9498C80.2472 67.8556 80.0998 67.7853 79.901 67.739L79.2429 67.5848C78.8812 67.4991 78.6156 67.3663 78.4459 67.1863C78.278 67.0046 78.194 66.7776 78.194 66.5051C78.194 66.2822 78.2565 66.0852 78.3817 65.9138C78.5085 65.7424 78.6807 65.6078 78.8984 65.5102C79.1178 65.4125 79.3663 65.3636 79.6439 65.3636C80.0347 65.3636 80.3415 65.4493 80.5643 65.6207C80.7888 65.7921 80.9482 66.0183 81.0424 66.2994ZM83.6935 64.0988H84.4237L85.8839 66.5565H85.9456L87.4058 64.0988H88.1359L86.2335 67.194V69.3638H85.5959V67.194L83.6935 64.0988ZM89.9753 69.446C89.5948 69.446 89.2666 69.3621 88.9907 69.1941C88.7164 69.0244 88.5048 68.7879 88.3557 68.4846C88.2083 68.1795 88.1346 67.8247 88.1346 67.4203C88.1346 67.0158 88.2083 66.6593 88.3557 66.3508C88.5048 66.0406 88.7122 65.7989 88.9778 65.6258C89.2452 65.451 89.5571 65.3636 89.9136 65.3636C90.1192 65.3636 90.3223 65.3979 90.5229 65.4665C90.7234 65.535 90.9059 65.6464 91.0704 65.8007C91.235 65.9532 91.3661 66.1554 91.4638 66.4074C91.5615 66.6593 91.6103 66.9695 91.6103 67.338V67.5951H88.5665V67.0706H90.9933C90.9933 66.8478 90.9487 66.649 90.8596 66.4742C90.7722 66.2994 90.6471 66.1614 90.4843 66.0603C90.3232 65.9592 90.1329 65.9086 89.9136 65.9086C89.6719 65.9086 89.4628 65.9686 89.2863 66.0886C89.1115 66.2068 88.9769 66.3611 88.8827 66.5513C88.7884 66.7416 88.7413 66.9455 88.7413 67.1632V67.5128C88.7413 67.811 88.7927 68.0638 88.8955 68.2712C89.0001 68.4768 89.1449 68.6337 89.33 68.7416C89.5151 68.8479 89.7302 68.901 89.9753 68.901C90.1347 68.901 90.2786 68.8787 90.4072 68.8342C90.5374 68.7879 90.6497 68.7194 90.7439 68.6285C90.8382 68.536 90.911 68.4211 90.9625 68.284L91.5486 68.4486C91.4869 68.6474 91.3832 68.8222 91.2375 68.973C91.0919 69.1221 90.9119 69.2387 90.6977 69.3226C90.4834 69.4049 90.2426 69.446 89.9753 69.446ZM93.6952 69.4563C93.445 69.4563 93.2179 69.4092 93.0139 69.3149C92.81 69.2189 92.648 69.081 92.5281 68.901C92.4081 68.7194 92.3481 68.5 92.3481 68.2429C92.3481 68.0167 92.3927 67.8333 92.4818 67.6928C92.5709 67.5505 92.69 67.4391 92.8391 67.3586C92.9882 67.278 93.1528 67.218 93.3327 67.1786C93.5144 67.1375 93.6969 67.1049 93.8803 67.0809C94.1202 67.0501 94.3148 67.0269 94.4639 67.0115C94.6147 66.9944 94.7244 66.9661 94.7929 66.9267C94.8632 66.8872 94.8983 66.8187 94.8983 66.721V66.7004C94.8983 66.4468 94.8289 66.2497 94.6901 66.1091C94.553 65.9686 94.3448 65.8983 94.0654 65.8983C93.7758 65.8983 93.5487 65.9618 93.3841 66.0886C93.2196 66.2154 93.1039 66.3508 93.0371 66.4948L92.4612 66.2891C92.5641 66.0492 92.7012 65.8624 92.8726 65.7287C93.0457 65.5933 93.2342 65.499 93.4381 65.4459C93.6438 65.391 93.846 65.3636 94.0448 65.3636C94.1717 65.3636 94.3173 65.379 94.4819 65.4099C94.6481 65.439 94.8084 65.4999 94.9626 65.5924C95.1186 65.685 95.248 65.8246 95.3508 66.0115C95.4536 66.1983 95.505 66.4485 95.505 66.7621V69.3638H94.8983V68.829H94.8675C94.8264 68.9147 94.7578 69.0064 94.6618 69.1041C94.5658 69.2018 94.4382 69.2849 94.2788 69.3535C94.1194 69.422 93.9249 69.4563 93.6952 69.4563ZM93.7878 68.9113C94.0277 68.9113 94.2299 68.8642 94.3945 68.7699C94.5607 68.6757 94.6858 68.554 94.7698 68.4049C94.8555 68.2558 94.8983 68.0989 94.8983 67.9344V67.3791C94.8726 67.41 94.8161 67.4382 94.7287 67.464C94.643 67.4879 94.5436 67.5094 94.4305 67.5282C94.3191 67.5454 94.2102 67.5608 94.104 67.5745C93.9994 67.5865 93.9146 67.5968 93.8495 67.6053C93.6918 67.6259 93.5444 67.6593 93.4073 67.7056C93.2719 67.7502 93.1622 67.8179 93.0782 67.9087C92.996 67.9978 92.9548 68.1195 92.9548 68.2738C92.9548 68.4846 93.0328 68.6439 93.1888 68.7519C93.3464 68.8582 93.5461 68.9113 93.7878 68.9113ZM96.6124 69.3638V65.415H97.1986V66.0115H97.2397C97.3117 65.8161 97.4419 65.6575 97.6304 65.5359C97.819 65.4142 98.0315 65.3533 98.268 65.3533C98.3126 65.3533 98.3683 65.3542 98.4351 65.3559C98.5019 65.3576 98.5525 65.3602 98.5868 65.3636V65.9806C98.5662 65.9755 98.5191 65.9678 98.4454 65.9575C98.3734 65.9455 98.2971 65.9395 98.2166 65.9395C98.0246 65.9395 97.8532 65.9798 97.7024 66.0603C97.5533 66.1391 97.4351 66.2488 97.3477 66.3894C97.262 66.5282 97.2191 66.6867 97.2191 66.865V69.3638H96.6124Z" fill="#8E93A6"/>
<path d="M47.6058 137.837V123.959H51.1146V137.837H47.6058ZM42.421 132.652V129.143H56.2994V132.652H42.421ZM67.6981 141.169C66.3129 141.169 65.0779 140.915 63.9933 140.405C62.9151 139.895 62.0592 139.193 61.4254 138.298C60.7916 137.403 60.4616 136.377 60.4354 135.22H64.5519C64.5977 135.998 64.9244 136.628 65.532 137.112C66.1397 137.595 66.8617 137.837 67.6981 137.837C68.3646 137.837 68.9526 137.69 69.4623 137.396C69.9785 137.095 70.3803 136.681 70.6678 136.151C70.9619 135.615 71.1089 135.001 71.1089 134.309C71.1089 133.603 70.9586 132.982 70.658 132.446C70.364 131.911 69.9556 131.492 69.4329 131.192C68.9102 130.891 68.3123 130.738 67.6393 130.731C67.0512 130.731 66.4795 130.852 65.9241 131.094C65.3752 131.336 64.9472 131.666 64.6401 132.084L60.8667 131.408L61.8174 120.822H74.0884V124.292H65.3164L64.797 129.32H64.9146C65.2674 128.823 65.7999 128.412 66.5122 128.085C67.2244 127.758 68.0215 127.595 68.9036 127.595C70.1124 127.595 71.1906 127.879 72.138 128.448C73.0854 129.016 73.8336 129.797 74.3825 130.79C74.9313 131.777 75.2025 132.914 75.196 134.201C75.2025 135.553 74.8889 136.756 74.255 137.808C73.6278 138.853 72.7489 139.676 71.6185 140.278C70.4947 140.872 69.1879 141.169 67.6981 141.169ZM85.644 141.169C84.1346 141.169 82.7918 140.924 81.6157 140.434C80.4461 139.938 79.5281 139.261 78.8616 138.406C78.1951 137.55 77.8619 136.579 77.8619 135.495C77.8619 134.658 78.0514 133.89 78.4303 133.191C78.8158 132.486 79.3386 131.901 79.9985 131.437C80.6585 130.966 81.3968 130.666 82.2136 130.535V130.398C81.142 130.182 80.273 129.663 79.6065 128.84C78.94 128.01 78.6068 127.046 78.6068 125.948C78.6068 124.909 78.9106 123.985 79.5183 123.175C80.1259 122.358 80.959 121.717 82.0176 121.254C83.0826 120.783 84.2914 120.548 85.644 120.548C86.9965 120.548 88.2021 120.783 89.2606 121.254C90.3257 121.724 91.162 122.368 91.7697 123.184C92.3774 123.995 92.6845 124.916 92.691 125.948C92.6845 127.053 92.3447 128.016 91.6717 128.84C90.9987 129.663 90.1362 130.182 89.0842 130.398V130.535C89.8879 130.666 90.6164 130.966 91.2698 131.437C91.9298 131.901 92.4525 132.486 92.838 133.191C93.2301 133.89 93.4293 134.658 93.4359 135.495C93.4293 136.579 93.0928 137.55 92.4264 138.406C91.7599 139.261 90.8386 139.938 89.6624 140.434C88.4928 140.924 87.1533 141.169 85.644 141.169ZM85.644 138.053C86.317 138.053 86.9051 137.932 87.4082 137.69C87.9113 137.442 88.3034 137.102 88.5843 136.671C88.8718 136.233 89.0156 135.73 89.0156 135.161C89.0156 134.58 88.8685 134.067 88.5745 133.623C88.2805 133.172 87.8819 132.819 87.3788 132.564C86.8757 132.303 86.2974 132.172 85.644 132.172C84.9971 132.172 84.4188 132.303 83.9092 132.564C83.3995 132.819 82.9977 133.172 82.7036 133.623C82.4161 134.067 82.2724 134.58 82.2724 135.161C82.2724 135.73 82.4129 136.233 82.6938 136.671C82.9748 137.102 83.3701 137.442 83.8798 137.69C84.3894 137.932 84.9775 138.053 85.644 138.053ZM85.644 129.085C86.2059 129.085 86.7058 128.97 87.1435 128.742C87.5813 128.513 87.9244 128.196 88.1727 127.791C88.421 127.386 88.5451 126.919 88.5451 126.389C88.5451 125.867 88.421 125.409 88.1727 125.017C87.9244 124.619 87.5846 124.308 87.1533 124.086C86.7221 123.857 86.219 123.743 85.644 123.743C85.0755 123.743 84.5724 123.857 84.1346 124.086C83.6968 124.308 83.3538 124.619 83.1055 125.017C82.8637 125.409 82.7428 125.867 82.7428 126.389C82.7428 126.919 82.867 127.386 83.1153 127.791C83.3636 128.196 83.7066 128.513 84.1444 128.742C84.5822 128.97 85.082 129.085 85.644 129.085Z" fill="black"/>
<path d="M105.161 135.774L110.843 145.615H99.4795L105.161 135.774Z" fill="#12B76A"/>
<path d="M40.618 159.515V154.25H41.2556V158.949H43.703V159.515H40.618ZM46.2121 159.597C45.8556 159.597 45.5428 159.512 45.2737 159.342C45.0064 159.173 44.7973 158.935 44.6465 158.63C44.4973 158.325 44.4228 157.969 44.4228 157.561C44.4228 157.15 44.4973 156.79 44.6465 156.484C44.7973 156.177 45.0064 155.939 45.2737 155.769C45.5428 155.599 45.8556 155.514 46.2121 155.514C46.5685 155.514 46.8805 155.599 47.1478 155.769C47.4169 155.939 47.626 156.177 47.7751 156.484C47.9259 156.79 48.0013 157.15 48.0013 157.561C48.0013 157.969 47.9259 158.325 47.7751 158.63C47.626 158.935 47.4169 159.173 47.1478 159.342C46.8805 159.512 46.5685 159.597 46.2121 159.597ZM46.2121 159.052C46.4829 159.052 46.7057 158.982 46.8805 158.844C47.0553 158.705 47.1847 158.522 47.2687 158.296C47.3526 158.07 47.3946 157.825 47.3946 157.561C47.3946 157.297 47.3526 157.051 47.2687 156.823C47.1847 156.595 47.0553 156.411 46.8805 156.27C46.7057 156.13 46.4829 156.06 46.2121 156.06C45.9413 156.06 45.7185 156.13 45.5437 156.27C45.3688 156.411 45.2394 156.595 45.1555 156.823C45.0715 157.051 45.0295 157.297 45.0295 157.561C45.0295 157.825 45.0715 158.07 45.1555 158.296C45.2394 158.522 45.3688 158.705 45.5437 158.844C45.7185 158.982 45.9413 159.052 46.2121 159.052ZM48.9275 159.515V155.566H49.5136V156.162H49.5547C49.6267 155.967 49.757 155.808 49.9455 155.687C50.134 155.565 50.3465 155.504 50.5831 155.504C50.6276 155.504 50.6833 155.505 50.7502 155.507C50.817 155.508 50.8676 155.511 50.9018 155.514V156.131C50.8813 156.126 50.8341 156.119 50.7604 156.108C50.6885 156.096 50.6122 156.09 50.5316 156.09C50.3397 156.09 50.1683 156.131 50.0175 156.211C49.8684 156.29 49.7501 156.4 49.6627 156.54C49.577 156.679 49.5342 156.838 49.5342 157.016V159.515H48.9275ZM53.1564 159.597C52.7759 159.597 52.4477 159.513 52.1718 159.345C51.8976 159.175 51.6859 158.939 51.5368 158.635C51.3894 158.33 51.3157 157.976 51.3157 157.571C51.3157 157.167 51.3894 156.81 51.5368 156.502C51.6859 156.191 51.8933 155.95 52.1589 155.777C52.4263 155.602 52.7382 155.514 53.0947 155.514C53.3004 155.514 53.5035 155.549 53.704 155.617C53.9045 155.686 54.087 155.797 54.2516 155.952C54.4161 156.104 54.5472 156.306 54.6449 156.558C54.7426 156.81 54.7914 157.12 54.7914 157.489V157.746H51.7476V157.222H54.1744C54.1744 156.999 54.1299 156.8 54.0408 156.625C53.9534 156.45 53.8282 156.312 53.6654 156.211C53.5043 156.11 53.3141 156.06 53.0947 156.06C52.8531 156.06 52.644 156.119 52.4674 156.239C52.2926 156.358 52.1581 156.512 52.0638 156.702C51.9696 156.892 51.9224 157.096 51.9224 157.314V157.664C51.9224 157.962 51.9738 158.215 52.0767 158.422C52.1812 158.628 52.326 158.785 52.5111 158.893C52.6962 158.999 52.9113 159.052 53.1564 159.052C53.3158 159.052 53.4598 159.03 53.5883 158.985C53.7186 158.939 53.8308 158.87 53.9251 158.779C54.0193 158.687 54.0922 158.572 54.1436 158.435L54.7297 158.599C54.668 158.798 54.5643 158.973 54.4187 159.124C54.273 159.273 54.093 159.39 53.8788 159.474C53.6646 159.556 53.4238 159.597 53.1564 159.597ZM55.7143 159.515V155.566H56.3005V156.183H56.3519C56.4342 155.972 56.567 155.808 56.7504 155.692C56.9338 155.574 57.154 155.514 57.4111 155.514C57.6716 155.514 57.8884 155.574 58.0615 155.692C58.2363 155.808 58.3725 155.972 58.4702 156.183H58.5114C58.6125 155.979 58.7642 155.817 58.9664 155.697C59.1686 155.575 59.4111 155.514 59.6939 155.514C60.047 155.514 60.3358 155.625 60.5603 155.846C60.7848 156.066 60.8971 156.407 60.8971 156.872V159.515H60.2904V156.872C60.2904 156.581 60.2107 156.372 60.0513 156.247C59.8919 156.122 59.7042 156.06 59.4883 156.06C59.2106 156.06 58.9955 156.143 58.843 156.311C58.6905 156.478 58.6142 156.688 58.6142 156.944V159.515H57.9972V156.81C57.9972 156.586 57.9244 156.405 57.7787 156.268C57.633 156.129 57.4453 156.06 57.2157 156.06C57.058 156.06 56.9106 156.101 56.7735 156.185C56.6381 156.269 56.5284 156.386 56.4445 156.535C56.3622 156.682 56.3211 156.853 56.3211 157.047V159.515H55.7143ZM64.7622 154.25V159.515H64.1247V154.25H64.7622ZM65.9583 160.995V155.566H66.5444V156.193H66.6164C66.661 156.125 66.7227 156.037 66.8015 155.931C66.8821 155.823 66.9969 155.727 67.146 155.643C67.2968 155.557 67.5008 155.514 67.7579 155.514C68.0903 155.514 68.3834 155.598 68.6371 155.764C68.8907 155.93 69.0887 156.166 69.2309 156.471C69.3732 156.776 69.4443 157.136 69.4443 157.551C69.4443 157.969 69.3732 158.331 69.2309 158.638C69.0887 158.943 68.8916 159.18 68.6396 159.348C68.3877 159.514 68.0972 159.597 67.7681 159.597C67.5145 159.597 67.3114 159.555 67.1589 159.471C67.0063 159.385 66.8889 159.288 66.8067 159.18C66.7244 159.071 66.661 158.98 66.6164 158.908H66.565V160.995H65.9583ZM66.5547 157.54C66.5547 157.838 66.5984 158.102 66.6858 158.33C66.7732 158.556 66.9009 158.733 67.0689 158.862C67.2368 158.988 67.4425 159.052 67.6859 159.052C67.9395 159.052 68.1512 158.985 68.3209 158.851C68.4922 158.716 68.6208 158.534 68.7065 158.306C68.7939 158.077 68.8376 157.821 68.8376 157.54C68.8376 157.263 68.7947 157.012 68.7091 156.79C68.6251 156.565 68.4974 156.388 68.326 156.257C68.1563 156.125 67.943 156.06 67.6859 156.06C67.4391 156.06 67.2317 156.122 67.0637 156.247C66.8958 156.371 66.769 156.544 66.6833 156.766C66.5976 156.988 66.5547 157.245 66.5547 157.54ZM73.1668 156.45L72.6218 156.605C72.5875 156.514 72.537 156.425 72.4701 156.34C72.405 156.252 72.3159 156.18 72.2028 156.124C72.0896 156.067 71.9448 156.039 71.7683 156.039C71.5266 156.039 71.3253 156.095 71.1642 156.206C71.0048 156.316 70.9251 156.455 70.9251 156.625C70.9251 156.776 70.9799 156.895 71.0896 156.982C71.1993 157.07 71.3707 157.143 71.6038 157.201L72.1899 157.345C72.543 157.431 72.806 157.562 72.9791 157.738C73.1522 157.913 73.2388 158.138 73.2388 158.414C73.2388 158.641 73.1737 158.843 73.0434 159.021C72.9149 159.199 72.7349 159.34 72.5035 159.443C72.2722 159.545 72.0031 159.597 71.6963 159.597C71.2936 159.597 70.9602 159.51 70.6963 159.335C70.4323 159.16 70.2652 158.905 70.195 158.569L70.7708 158.425C70.8257 158.637 70.9294 158.797 71.0819 158.903C71.2361 159.009 71.4375 159.062 71.686 159.062C71.9688 159.062 72.1933 159.002 72.3596 158.882C72.5275 158.761 72.6115 158.615 72.6115 158.445C72.6115 158.308 72.5635 158.193 72.4675 158.101C72.3716 158.006 72.2242 157.936 72.0254 157.89L71.3673 157.736C71.0056 157.65 70.74 157.517 70.5703 157.337C70.4023 157.156 70.3184 156.928 70.3184 156.656C70.3184 156.433 70.3809 156.236 70.506 156.065C70.6329 155.893 70.8051 155.759 71.0228 155.661C71.2421 155.563 71.4906 155.514 71.7683 155.514C72.1591 155.514 72.4658 155.6 72.6886 155.772C72.9132 155.943 73.0725 156.169 73.1668 156.45ZM76.6406 157.9V155.566H77.2473V159.515H76.6406V158.846H76.5995C76.5069 159.047 76.3629 159.217 76.1676 159.358C75.9722 159.497 75.7254 159.566 75.4272 159.566C75.1804 159.566 74.961 159.512 74.769 159.404C74.5771 159.294 74.4263 159.13 74.3166 158.911C74.2069 158.689 74.1521 158.411 74.1521 158.075V155.566H74.7588V158.034C74.7588 158.322 74.8393 158.551 75.0004 158.723C75.1632 158.894 75.3706 158.98 75.6226 158.98C75.7734 158.98 75.9268 158.941 76.0827 158.864C76.2404 158.787 76.3724 158.669 76.4786 158.509C76.5866 158.35 76.6406 158.147 76.6406 157.9ZM78.3585 159.515V155.566H78.9447V156.183H78.9961C79.0783 155.972 79.2112 155.808 79.3945 155.692C79.5779 155.574 79.7982 155.514 80.0552 155.514C80.3157 155.514 80.5325 155.574 80.7056 155.692C80.8805 155.808 81.0167 155.972 81.1144 156.183H81.1555C81.2567 155.979 81.4083 155.817 81.6106 155.697C81.8128 155.575 82.0553 155.514 82.3381 155.514C82.6912 155.514 82.9799 155.625 83.2045 155.846C83.429 156.066 83.5412 156.407 83.5412 156.872V159.515H82.9345V156.872C82.9345 156.581 82.8548 156.372 82.6954 156.247C82.536 156.122 82.3484 156.06 82.1324 156.06C81.8548 156.06 81.6397 156.143 81.4872 156.311C81.3346 156.478 81.2584 156.688 81.2584 156.944V159.515H80.6414V156.81C80.6414 156.586 80.5685 156.405 80.4229 156.268C80.2772 156.129 80.0895 156.06 79.8599 156.06C79.7022 156.06 79.5548 156.101 79.4177 156.185C79.2823 156.269 79.1726 156.386 79.0886 156.535C79.0064 156.682 78.9652 156.853 78.9652 157.047V159.515H78.3585ZM86.6866 159.515V155.566H87.2933V159.515H86.6866ZM86.9951 154.908C86.8768 154.908 86.7749 154.868 86.6892 154.787C86.6052 154.706 86.5632 154.61 86.5632 154.496C86.5632 154.383 86.6052 154.287 86.6892 154.206C86.7749 154.125 86.8768 154.085 86.9951 154.085C87.1133 154.085 87.2145 154.125 87.2984 154.206C87.3841 154.287 87.427 154.383 87.427 154.496C87.427 154.61 87.3841 154.706 87.2984 154.787C87.2145 154.868 87.1133 154.908 86.9951 154.908ZM91.2015 156.45L90.6565 156.605C90.6223 156.514 90.5717 156.425 90.5049 156.34C90.4397 156.252 90.3506 156.18 90.2375 156.124C90.1244 156.067 89.9796 156.039 89.803 156.039C89.5614 156.039 89.36 156.095 89.1989 156.206C89.0395 156.316 88.9598 156.455 88.9598 156.625C88.9598 156.776 89.0147 156.895 89.1243 156.982C89.234 157.07 89.4054 157.143 89.6385 157.201L90.2246 157.345C90.5777 157.431 90.8408 157.562 91.0139 157.738C91.187 157.913 91.2735 158.138 91.2735 158.414C91.2735 158.641 91.2084 158.843 91.0781 159.021C90.9496 159.199 90.7696 159.34 90.5383 159.443C90.3069 159.545 90.0378 159.597 89.7311 159.597C89.3283 159.597 88.9949 159.51 88.731 159.335C88.4671 159.16 88.3 158.905 88.2297 158.569L88.8056 158.425C88.8604 158.637 88.9641 158.797 89.1166 158.903C89.2709 159.009 89.4723 159.062 89.7208 159.062C90.0036 159.062 90.2281 159.002 90.3943 158.882C90.5623 158.761 90.6463 158.615 90.6463 158.445C90.6463 158.308 90.5983 158.193 90.5023 158.101C90.4063 158.006 90.2589 157.936 90.0601 157.89L89.402 157.736C89.0404 157.65 88.7747 157.517 88.605 157.337C88.4371 157.156 88.3531 156.928 88.3531 156.656C88.3531 156.433 88.4157 156.236 88.5408 156.065C88.6676 155.893 88.8398 155.759 89.0575 155.661C89.2769 155.563 89.5254 155.514 89.803 155.514C90.1938 155.514 90.5006 155.6 90.7234 155.772C90.9479 155.943 91.1073 156.169 91.2015 156.45ZM97.0199 156.45L96.4749 156.605C96.4406 156.514 96.39 156.425 96.3232 156.34C96.2581 156.252 96.169 156.18 96.0558 156.124C95.9427 156.067 95.7979 156.039 95.6214 156.039C95.3797 156.039 95.1783 156.095 95.0172 156.206C94.8578 156.316 94.7782 156.455 94.7782 156.625C94.7782 156.776 94.833 156.895 94.9427 156.982C95.0524 157.07 95.2238 157.143 95.4568 157.201L96.043 157.345C96.396 157.431 96.6591 157.562 96.8322 157.738C97.0053 157.913 97.0919 158.138 97.0919 158.414C97.0919 158.641 97.0267 158.843 96.8965 159.021C96.7679 159.199 96.588 159.34 96.3566 159.443C96.1252 159.545 95.8562 159.597 95.5494 159.597C95.1466 159.597 94.8133 159.51 94.5494 159.335C94.2854 159.16 94.1183 158.905 94.048 158.569L94.6239 158.425C94.6787 158.637 94.7824 158.797 94.935 158.903C95.0892 159.009 95.2906 159.062 95.5391 159.062C95.8219 159.062 96.0464 159.002 96.2127 158.882C96.3806 158.761 96.4646 158.615 96.4646 158.445C96.4646 158.308 96.4166 158.193 96.3206 158.101C96.2247 158.006 96.0773 157.936 95.8785 157.89L95.2203 157.736C94.8587 157.65 94.5931 157.517 94.4234 157.337C94.2554 157.156 94.1714 156.928 94.1714 156.656C94.1714 156.433 94.234 156.236 94.3591 156.065C94.4859 155.893 94.6582 155.759 94.8758 155.661C95.0952 155.563 95.3437 155.514 95.6214 155.514C96.0121 155.514 96.3189 155.6 96.5417 155.772C96.7662 155.943 96.9256 156.169 97.0199 156.45ZM98.0051 159.515V155.566H98.6118V159.515H98.0051ZM98.3136 154.908C98.1954 154.908 98.0934 154.868 98.0077 154.787C97.9237 154.706 97.8817 154.61 97.8817 154.496C97.8817 154.383 97.9237 154.287 98.0077 154.206C98.0934 154.125 98.1954 154.085 98.3136 154.085C98.4319 154.085 98.533 154.125 98.617 154.206C98.7027 154.287 98.7455 154.383 98.7455 154.496C98.7455 154.61 98.7027 154.706 98.617 154.787C98.533 154.868 98.4319 154.908 98.3136 154.908ZM99.7231 159.515V155.566H100.309V156.183H100.361C100.443 155.972 100.576 155.808 100.759 155.692C100.942 155.574 101.163 155.514 101.42 155.514C101.68 155.514 101.897 155.574 102.07 155.692C102.245 155.808 102.381 155.972 102.479 156.183H102.52C102.621 155.979 102.773 155.817 102.975 155.697C103.177 155.575 103.42 155.514 103.703 155.514C104.056 155.514 104.344 155.625 104.569 155.846C104.794 156.066 104.906 156.407 104.906 156.872V159.515H104.299V156.872C104.299 156.581 104.219 156.372 104.06 156.247C103.901 156.122 103.713 156.06 103.497 156.06C103.219 156.06 103.004 156.143 102.852 156.311C102.699 156.478 102.623 156.688 102.623 156.944V159.515H102.006V156.81C102.006 156.586 101.933 156.405 101.787 156.268C101.642 156.129 101.454 156.06 101.224 156.06C101.067 156.06 100.919 156.101 100.782 156.185C100.647 156.269 100.537 156.386 100.453 156.535C100.371 156.682 100.33 156.853 100.33 157.047V159.515H99.7231ZM106.015 160.995V155.566H106.601V156.193H106.673C106.718 156.125 106.779 156.037 106.858 155.931C106.939 155.823 107.054 155.727 107.203 155.643C107.354 155.557 107.558 155.514 107.815 155.514C108.147 155.514 108.44 155.598 108.694 155.764C108.947 155.93 109.145 156.166 109.288 156.471C109.43 156.776 109.501 157.136 109.501 157.551C109.501 157.969 109.43 158.331 109.288 158.638C109.145 158.943 108.948 159.18 108.696 159.348C108.444 159.514 108.154 159.597 107.825 159.597C107.571 159.597 107.368 159.555 107.216 159.471C107.063 159.385 106.946 159.288 106.863 159.18C106.781 159.071 106.718 158.98 106.673 158.908H106.622V160.995H106.015ZM106.611 157.54C106.611 157.838 106.655 158.102 106.743 158.33C106.83 158.556 106.958 158.733 107.126 158.862C107.294 158.988 107.499 159.052 107.743 159.052C107.996 159.052 108.208 158.985 108.378 158.851C108.549 158.716 108.678 158.534 108.763 158.306C108.851 158.077 108.894 157.821 108.894 157.54C108.894 157.263 108.852 157.012 108.766 156.79C108.682 156.565 108.554 156.388 108.383 156.257C108.213 156.125 108 156.06 107.743 156.06C107.496 156.06 107.288 156.122 107.121 156.247C106.953 156.371 106.826 156.544 106.74 156.766C106.654 156.988 106.611 157.245 106.611 157.54ZM111.033 154.25V159.515H110.427V154.25H111.033ZM112.535 160.995C112.432 160.995 112.341 160.987 112.26 160.97C112.18 160.954 112.124 160.939 112.093 160.923L112.247 160.389C112.395 160.426 112.525 160.44 112.638 160.43C112.751 160.42 112.851 160.369 112.939 160.278C113.028 160.189 113.109 160.044 113.183 159.844L113.296 159.535L111.836 155.566H112.494L113.584 158.713H113.625L114.715 155.566H115.373L113.697 160.091C113.622 160.294 113.528 160.463 113.417 160.597C113.306 160.732 113.176 160.833 113.029 160.898C112.883 160.963 112.719 160.995 112.535 160.995ZM119.701 159.597C119.372 159.597 119.082 159.514 118.83 159.348C118.578 159.18 118.381 158.943 118.239 158.638C118.096 158.331 118.025 157.969 118.025 157.551C118.025 157.136 118.096 156.776 118.239 156.471C118.381 156.166 118.579 155.93 118.832 155.764C119.086 155.598 119.379 155.514 119.712 155.514C119.969 155.514 120.172 155.557 120.321 155.643C120.472 155.727 120.587 155.823 120.665 155.931C120.746 156.037 120.808 156.125 120.853 156.193H120.904V154.25H121.511V159.515H120.925V158.908H120.853C120.808 158.98 120.745 159.071 120.663 159.18C120.581 159.288 120.463 159.385 120.311 159.471C120.158 159.555 119.955 159.597 119.701 159.597ZM119.784 159.052C120.027 159.052 120.233 158.988 120.401 158.862C120.569 158.733 120.696 158.556 120.784 158.33C120.871 158.102 120.915 157.838 120.915 157.54C120.915 157.245 120.872 156.988 120.786 156.766C120.701 156.544 120.574 156.371 120.406 156.247C120.238 156.122 120.03 156.06 119.784 156.06C119.527 156.06 119.312 156.125 119.141 156.257C118.971 156.388 118.844 156.565 118.758 156.79C118.674 157.012 118.632 157.263 118.632 157.54C118.632 157.821 118.675 158.077 118.76 158.306C118.848 158.534 118.976 158.716 119.146 158.851C119.317 158.985 119.53 159.052 119.784 159.052ZM125.195 157.9V155.566H125.802V159.515H125.195V158.846H125.154C125.061 159.047 124.917 159.217 124.722 159.358C124.527 159.497 124.28 159.566 123.982 159.566C123.735 159.566 123.516 159.512 123.324 159.404C123.132 159.294 122.981 159.13 122.871 158.911C122.761 158.689 122.707 158.411 122.707 158.075V155.566H123.313V158.034C123.313 158.322 123.394 158.551 123.555 158.723C123.718 158.894 123.925 158.98 124.177 158.98C124.328 158.98 124.481 158.941 124.637 158.864C124.795 158.787 124.927 158.669 125.033 158.509C125.141 158.35 125.195 158.147 125.195 157.9ZM126.913 159.515V155.566H127.499V156.183H127.551C127.633 155.972 127.766 155.808 127.949 155.692C128.132 155.574 128.353 155.514 128.61 155.514C128.87 155.514 129.087 155.574 129.26 155.692C129.435 155.808 129.571 155.972 129.669 156.183H129.71C129.811 155.979 129.963 155.817 130.165 155.697C130.367 155.575 130.61 155.514 130.893 155.514C131.246 155.514 131.534 155.625 131.759 155.846C131.983 156.066 132.096 156.407 132.096 156.872V159.515H131.489V156.872C131.489 156.581 131.409 156.372 131.25 156.247C131.091 156.122 130.903 156.06 130.687 156.06C130.409 156.06 130.194 156.143 130.042 156.311C129.889 156.478 129.813 156.688 129.813 156.944V159.515H129.196V156.81C129.196 156.586 129.123 156.405 128.977 156.268C128.832 156.129 128.644 156.06 128.414 156.06C128.257 156.06 128.109 156.101 127.972 156.185C127.837 156.269 127.727 156.386 127.643 156.535C127.561 156.682 127.52 156.853 127.52 157.047V159.515H126.913ZM133.205 159.515V155.566H133.791V156.183H133.843C133.925 155.972 134.058 155.808 134.241 155.692C134.424 155.574 134.645 155.514 134.902 155.514C135.162 155.514 135.379 155.574 135.552 155.692C135.727 155.808 135.863 155.972 135.961 156.183H136.002C136.103 155.979 136.255 155.817 136.457 155.697C136.659 155.575 136.902 155.514 137.185 155.514C137.538 155.514 137.826 155.625 138.051 155.846C138.276 156.066 138.388 156.407 138.388 156.872V159.515H137.781V156.872C137.781 156.581 137.701 156.372 137.542 156.247C137.383 156.122 137.195 156.06 136.979 156.06C136.701 156.06 136.486 156.143 136.334 156.311C136.181 156.478 136.105 156.688 136.105 156.944V159.515H135.488V156.81C135.488 156.586 135.415 156.405 135.269 156.268C135.124 156.129 134.936 156.06 134.706 156.06C134.549 156.06 134.401 156.101 134.264 156.185C134.129 156.269 134.019 156.386 133.935 156.535C133.853 156.682 133.812 156.853 133.812 157.047V159.515H133.205ZM139.746 160.995C139.644 160.995 139.552 160.987 139.471 160.97C139.391 160.954 139.335 160.939 139.304 160.923L139.458 160.389C139.606 160.426 139.736 160.44 139.849 160.43C139.962 160.42 140.063 160.369 140.15 160.278C140.239 160.189 140.321 160.044 140.394 159.844L140.507 159.535L139.047 155.566H139.705L140.795 158.713H140.836L141.926 155.566H142.585L140.908 160.091C140.833 160.294 140.74 160.463 140.628 160.597C140.517 160.732 140.387 160.833 140.24 160.898C140.094 160.963 139.93 160.995 139.746 160.995ZM42.253 164.566V165.08H40.2067V164.566H42.253ZM40.8031 163.62H41.4098V167.384C41.4098 167.555 41.4347 167.683 41.4844 167.769C41.5358 167.853 41.6009 167.91 41.6798 167.939C41.7603 167.966 41.8451 167.98 41.9343 167.98C42.0011 167.98 42.056 167.976 42.0988 167.97C42.1416 167.961 42.1759 167.954 42.2016 167.949L42.325 168.494C42.2839 168.51 42.2265 168.525 42.1528 168.54C42.0791 168.557 41.9857 168.566 41.8726 168.566C41.7012 168.566 41.5332 168.529 41.3687 168.456C41.2059 168.382 41.0705 168.27 40.9625 168.119C40.8563 167.968 40.8031 167.778 40.8031 167.548V163.62ZM44.7788 168.597C44.3984 168.597 44.0702 168.513 43.7942 168.345C43.52 168.175 43.3084 167.939 43.1593 167.635C43.0119 167.33 42.9382 166.976 42.9382 166.571C42.9382 166.167 43.0119 165.81 43.1593 165.502C43.3084 165.191 43.5157 164.95 43.7814 164.777C44.0487 164.602 44.3607 164.514 44.7172 164.514C44.9228 164.514 45.1259 164.549 45.3264 164.617C45.5269 164.686 45.7095 164.797 45.874 164.952C46.0385 165.104 46.1696 165.306 46.2673 165.558C46.365 165.81 46.4139 166.12 46.4139 166.489V166.746H43.3701V166.222H45.7969C45.7969 165.999 45.7523 165.8 45.6632 165.625C45.5758 165.45 45.4507 165.312 45.2879 165.211C45.1268 165.11 44.9365 165.06 44.7172 165.06C44.4755 165.06 44.2664 165.119 44.0899 165.239C43.9151 165.358 43.7805 165.512 43.6863 165.702C43.592 165.892 43.5449 166.096 43.5449 166.314V166.664C43.5449 166.962 43.5963 167.215 43.6991 167.422C43.8037 167.628 43.9485 167.785 44.1336 167.893C44.3187 167.999 44.5338 168.052 44.7788 168.052C44.9382 168.052 45.0822 168.03 45.2107 167.985C45.341 167.939 45.4533 167.87 45.5475 167.779C45.6418 167.687 45.7146 167.572 45.766 167.435L46.3522 167.599C46.2905 167.798 46.1868 167.973 46.0411 168.124C45.8954 168.273 45.7155 168.39 45.5012 168.474C45.287 168.556 45.0462 168.597 44.7788 168.597ZM47.6832 164.566L48.6293 166.18L49.5753 164.566H50.2746L48.9994 166.54L50.2746 168.515H49.5753L48.6293 166.982L47.6832 168.515H46.9839L48.2385 166.54L46.9839 164.566H47.6832ZM52.8576 164.566V165.08H50.8112V164.566H52.8576ZM51.4076 163.62H52.0143V167.384C52.0143 167.555 52.0392 167.683 52.0889 167.769C52.1403 167.853 52.2054 167.91 52.2843 167.939C52.3648 167.966 52.4497 167.98 52.5388 167.98C52.6056 167.98 52.6605 167.976 52.7033 167.97C52.7462 167.961 52.7804 167.954 52.8061 167.949L52.9295 168.494C52.8884 168.51 52.831 168.525 52.7573 168.54C52.6836 168.557 52.5902 168.566 52.4771 168.566C52.3057 168.566 52.1377 168.529 51.9732 168.456C51.8104 168.382 51.675 168.27 51.567 168.119C51.4608 167.968 51.4076 167.778 51.4076 167.548V163.62ZM57.4104 168.597C57.0539 168.597 56.7412 168.512 56.4721 168.342C56.2047 168.173 55.9956 167.935 55.8448 167.63C55.6957 167.325 55.6212 166.969 55.6212 166.561C55.6212 166.15 55.6957 165.79 55.8448 165.484C55.9956 165.177 56.2047 164.939 56.4721 164.769C56.7412 164.599 57.0539 164.514 57.4104 164.514C57.7669 164.514 58.0788 164.599 58.3462 164.769C58.6153 164.939 58.8244 165.177 58.9735 165.484C59.1243 165.79 59.1997 166.15 59.1997 166.561C59.1997 166.969 59.1243 167.325 58.9735 167.63C58.8244 167.935 58.6153 168.173 58.3462 168.342C58.0788 168.512 57.7669 168.597 57.4104 168.597ZM57.4104 168.052C57.6812 168.052 57.904 167.982 58.0788 167.844C58.2536 167.705 58.383 167.522 58.467 167.296C58.551 167.07 58.593 166.825 58.593 166.561C58.593 166.297 58.551 166.051 58.467 165.823C58.383 165.595 58.2536 165.411 58.0788 165.27C57.904 165.13 57.6812 165.06 57.4104 165.06C57.1396 165.06 56.9168 165.13 56.742 165.27C56.5672 165.411 56.4378 165.595 56.3538 165.823C56.2699 166.051 56.2279 166.297 56.2279 166.561C56.2279 166.825 56.2699 167.07 56.3538 167.296C56.4378 167.522 56.5672 167.705 56.742 167.844C56.9168 167.982 57.1396 168.052 57.4104 168.052ZM61.8842 164.566V165.08H59.7556V164.566H61.8842ZM60.3932 168.515V164.021C60.3932 163.795 60.4463 163.606 60.5526 163.455C60.6588 163.305 60.7968 163.191 60.9665 163.116C61.1361 163.041 61.3152 163.003 61.5038 163.003C61.6529 163.003 61.7746 163.015 61.8688 163.039C61.9631 163.063 62.0334 163.085 62.0796 163.106L61.9048 163.63C61.874 163.62 61.8311 163.607 61.7763 163.592C61.7231 163.576 61.6529 163.568 61.5655 163.568C61.3649 163.568 61.2201 163.619 61.131 163.72C61.0436 163.821 60.9999 163.969 60.9999 164.165V168.515H60.3932ZM66.4879 164.566V165.08H64.4415V164.566H66.4879ZM65.038 163.62H65.6447V167.384C65.6447 167.555 65.6695 167.683 65.7192 167.769C65.7706 167.853 65.8358 167.91 65.9146 167.939C65.9952 167.966 66.08 167.98 66.1691 167.98C66.236 167.98 66.2908 167.976 66.3336 167.97C66.3765 167.961 66.4108 167.954 66.4365 167.949L66.5599 168.494C66.5187 168.51 66.4613 168.525 66.3876 168.54C66.3139 168.557 66.2205 168.566 66.1074 168.566C65.936 168.566 65.7681 168.529 65.6035 168.456C65.4407 168.382 65.3053 168.27 65.1974 168.119C65.0911 167.968 65.038 167.778 65.038 167.548V163.62ZM68.0921 166.139V168.515H67.4854V163.25H68.0921V165.183H68.1435C68.236 164.979 68.3748 164.817 68.5599 164.697C68.7468 164.575 68.9953 164.514 69.3055 164.514C69.5746 164.514 69.8102 164.568 70.0124 164.676C70.2147 164.783 70.3715 164.946 70.4829 165.167C70.596 165.387 70.6526 165.666 70.6526 166.006V168.515H70.0459V166.047C70.0459 165.733 69.9645 165.491 69.8016 165.319C69.6405 165.146 69.4169 165.06 69.1307 165.06C68.9319 165.06 68.7536 165.101 68.5959 165.185C68.44 165.269 68.3166 165.392 68.2257 165.553C68.1366 165.714 68.0921 165.91 68.0921 166.139ZM73.4181 168.597C73.0376 168.597 72.7094 168.513 72.4335 168.345C72.1593 168.175 71.9476 167.939 71.7985 167.635C71.6511 167.33 71.5774 166.976 71.5774 166.571C71.5774 166.167 71.6511 165.81 71.7985 165.502C71.9476 165.191 72.155 164.95 72.4206 164.777C72.688 164.602 72.9999 164.514 73.3564 164.514C73.5621 164.514 73.7652 164.549 73.9657 164.617C74.1662 164.686 74.3487 164.797 74.5133 164.952C74.6778 165.104 74.8089 165.306 74.9066 165.558C75.0043 165.81 75.0531 166.12 75.0531 166.489V166.746H72.0093V166.222H74.4361C74.4361 165.999 74.3916 165.8 74.3025 165.625C74.215 165.45 74.0899 165.312 73.9271 165.211C73.766 165.11 73.5758 165.06 73.3564 165.06C73.1147 165.06 72.9057 165.119 72.7291 165.239C72.5543 165.358 72.4198 165.512 72.3255 165.702C72.2312 165.892 72.1841 166.096 72.1841 166.314V166.664C72.1841 166.962 72.2355 167.215 72.3384 167.422C72.4429 167.628 72.5877 167.785 72.7728 167.893C72.9579 167.999 73.173 168.052 73.4181 168.052C73.5775 168.052 73.7215 168.03 73.85 167.985C73.9802 167.939 74.0925 167.87 74.1868 167.779C74.281 167.687 74.3539 167.572 74.4053 167.435L74.9914 167.599C74.9297 167.798 74.826 167.973 74.6804 168.124C74.5347 168.273 74.3547 168.39 74.1405 168.474C73.9263 168.556 73.6855 168.597 73.4181 168.597ZM78.0121 169.995V164.566H78.5982V165.193H78.6702C78.7148 165.125 78.7765 165.037 78.8553 164.931C78.9359 164.823 79.0507 164.727 79.1998 164.643C79.3506 164.557 79.5546 164.514 79.8117 164.514C80.1441 164.514 80.4372 164.598 80.6909 164.764C80.9445 164.93 81.1425 165.166 81.2847 165.471C81.427 165.776 81.4981 166.136 81.4981 166.551C81.4981 166.969 81.427 167.331 81.2847 167.638C81.1425 167.943 80.9454 168.18 80.6934 168.348C80.4415 168.514 80.151 168.597 79.8219 168.597C79.5683 168.597 79.3652 168.555 79.2127 168.471C79.0601 168.385 78.9427 168.288 78.8605 168.18C78.7782 168.071 78.7148 167.98 78.6702 167.908H78.6188V169.995H78.0121ZM78.6085 166.54C78.6085 166.838 78.6522 167.102 78.7396 167.33C78.827 167.556 78.9547 167.733 79.1227 167.862C79.2906 167.988 79.4963 168.052 79.7397 168.052C79.9933 168.052 80.205 167.985 80.3747 167.851C80.546 167.716 80.6746 167.534 80.7603 167.306C80.8477 167.077 80.8914 166.821 80.8914 166.54C80.8914 166.263 80.8485 166.012 80.7628 165.79C80.6789 165.565 80.5512 165.388 80.3798 165.257C80.2101 165.125 79.9968 165.06 79.7397 165.06C79.4929 165.06 79.2855 165.122 79.1175 165.247C78.9496 165.371 78.8228 165.544 78.7371 165.766C78.6514 165.988 78.6085 166.245 78.6085 166.54ZM82.4236 168.515V164.566H83.0097V165.162H83.0508C83.1228 164.967 83.2531 164.808 83.4416 164.687C83.6301 164.565 83.8427 164.504 84.0792 164.504C84.1237 164.504 84.1794 164.505 84.2463 164.507C84.3131 164.508 84.3637 164.511 84.3979 164.514V165.131C84.3774 165.126 84.3302 165.119 84.2566 165.108C84.1846 165.096 84.1083 165.09 84.0278 165.09C83.8358 165.09 83.6644 165.131 83.5136 165.211C83.3645 165.29 83.2462 165.4 83.1588 165.54C83.0731 165.679 83.0303 165.838 83.0303 166.016V168.515H82.4236ZM85.1171 168.515V164.566H85.7238V168.515H85.1171ZM85.4256 163.908C85.3074 163.908 85.2054 163.868 85.1197 163.787C85.0357 163.706 84.9937 163.61 84.9937 163.496C84.9937 163.383 85.0357 163.287 85.1197 163.206C85.2054 163.125 85.3074 163.085 85.4256 163.085C85.5439 163.085 85.645 163.125 85.729 163.206C85.8147 163.287 85.8575 163.383 85.8575 163.496C85.8575 163.61 85.8147 163.706 85.729 163.787C85.645 163.868 85.5439 163.908 85.4256 163.908ZM87.4418 166.139V168.515H86.8351V164.566H87.4212V165.183H87.4726C87.5652 164.982 87.7057 164.821 87.8942 164.7C88.0827 164.576 88.3261 164.514 88.6243 164.514C88.8917 164.514 89.1256 164.569 89.3261 164.679C89.5267 164.787 89.6826 164.952 89.794 165.173C89.9054 165.392 89.9611 165.67 89.9611 166.006V168.515H89.3544V166.047C89.3544 165.736 89.2739 165.495 89.1128 165.322C88.9517 165.147 88.7306 165.06 88.4495 165.06C88.2558 165.06 88.0827 165.101 87.9302 165.185C87.7794 165.269 87.6603 165.392 87.5729 165.553C87.4855 165.714 87.4418 165.91 87.4418 166.139ZM92.7871 164.566V165.08H90.7407V164.566H92.7871ZM91.3371 163.62H91.9439V167.384C91.9439 167.555 91.9687 167.683 92.0184 167.769C92.0698 167.853 92.135 167.91 92.2138 167.939C92.2943 167.966 92.3792 167.98 92.4683 167.98C92.5351 167.98 92.59 167.976 92.6328 167.97C92.6757 167.961 92.71 167.954 92.7357 167.949L92.8591 168.494C92.8179 168.51 92.7605 168.525 92.6868 168.54C92.6131 168.557 92.5197 168.566 92.4066 168.566C92.2352 168.566 92.0673 168.529 91.9027 168.456C91.7399 168.382 91.6045 168.27 91.4965 168.119C91.3903 167.968 91.3371 167.778 91.3371 167.548V163.62ZM93.6997 168.515V164.566H94.3064V168.515H93.6997ZM94.0082 163.908C93.8899 163.908 93.788 163.868 93.7023 163.787C93.6183 163.706 93.5763 163.61 93.5763 163.496C93.5763 163.383 93.6183 163.287 93.7023 163.206C93.788 163.125 93.8899 163.085 94.0082 163.085C94.1265 163.085 94.2276 163.125 94.3116 163.206C94.3972 163.287 94.4401 163.383 94.4401 163.496C94.4401 163.61 94.3972 163.706 94.3116 163.787C94.2276 163.868 94.1265 163.908 94.0082 163.908ZM96.0243 166.139V168.515H95.4176V164.566H96.0038V165.183H96.0552C96.1477 164.982 96.2883 164.821 96.4768 164.7C96.6653 164.576 96.9087 164.514 97.2069 164.514C97.4743 164.514 97.7082 164.569 97.9087 164.679C98.1093 164.787 98.2652 164.952 98.3766 165.173C98.488 165.392 98.5437 165.67 98.5437 166.006V168.515H97.937V166.047C97.937 165.736 97.8565 165.495 97.6954 165.322C97.5343 165.147 97.3132 165.06 97.0321 165.06C96.8384 165.06 96.6653 165.101 96.5128 165.185C96.362 165.269 96.2429 165.392 96.1555 165.553C96.068 165.714 96.0243 165.91 96.0243 166.139ZM101.246 170.078C100.953 170.078 100.701 170.04 100.49 169.965C100.28 169.891 100.104 169.793 99.9634 169.672C99.8246 169.552 99.7141 169.423 99.6318 169.286L100.115 168.947C100.17 169.019 100.239 169.101 100.323 169.193C100.407 169.288 100.522 169.369 100.668 169.438C100.815 169.508 101.008 169.543 101.246 169.543C101.565 169.543 101.828 169.466 102.035 169.312C102.243 169.157 102.347 168.916 102.347 168.587V167.785H102.295C102.251 167.857 102.187 167.946 102.105 168.052C102.024 168.156 101.908 168.25 101.755 168.332C101.604 168.413 101.401 168.453 101.143 168.453C100.825 168.453 100.538 168.378 100.285 168.227C100.033 168.076 99.8332 167.857 99.6858 167.569C99.5401 167.281 99.4673 166.931 99.4673 166.52C99.4673 166.115 99.5384 165.763 99.6806 165.463C99.8229 165.161 100.021 164.928 100.275 164.764C100.528 164.598 100.821 164.514 101.154 164.514C101.411 164.514 101.615 164.557 101.766 164.643C101.918 164.727 102.035 164.823 102.115 164.931C102.197 165.037 102.261 165.125 102.305 165.193H102.367V164.566H102.953V168.628C102.953 168.967 102.876 169.243 102.722 169.456C102.569 169.67 102.364 169.827 102.105 169.926C101.848 170.027 101.562 170.078 101.246 170.078ZM101.226 167.908C101.469 167.908 101.675 167.852 101.843 167.741C102.011 167.629 102.138 167.469 102.226 167.26C102.313 167.051 102.357 166.801 102.357 166.509C102.357 166.225 102.314 165.974 102.228 165.756C102.143 165.539 102.016 165.368 101.848 165.245C101.68 165.121 101.472 165.06 101.226 165.06C100.969 165.06 100.754 165.125 100.583 165.255C100.413 165.385 100.286 165.56 100.2 165.779C100.116 165.999 100.074 166.242 100.074 166.509C100.074 166.784 100.117 167.026 100.203 167.237C100.29 167.446 100.418 167.611 100.588 167.731C100.76 167.849 100.972 167.908 101.226 167.908Z" fill="#8E93A6"/>
<circle cx="335.414" cy="50.8263" r="0.904918" fill="#6A6A6A"/>
<circle cx="335.414" cy="53.9933" r="0.904918" fill="#6A6A6A"/>
<circle cx="335.414" cy="57.1608" r="0.904918" fill="#6A6A6A"/>
<rect x="160.787" y="63.269" width="10.4066" height="145.692" rx="5.20328" fill="#D9D9D9"/>
<rect x="189.292" y="63.269" width="10.4066" height="145.692" rx="5.20328" fill="#D9D9D9"/>
<rect x="217.797" y="63.269" width="10.4066" height="145.692" rx="5.20328" fill="#D9D9D9"/>
<rect x="246.302" y="63.269" width="10.4066" height="145.692" rx="5.20328" fill="#D9D9D9"/>
<rect x="274.807" y="63.269" width="10.4066" height="145.692" rx="5.20328" fill="#D9D9D9"/>
<rect x="303.312" y="63.269" width="10.4066" height="145.692" rx="5.20328" fill="#D9D9D9"/>
<rect x="331.816" y="63.269" width="10.4066" height="145.692" rx="5.20328" fill="#D9D9D9"/>
<rect x="160.787" y="170.049" width="10.4066" height="38.9115" rx="5.20328" fill="#FFA800"/>
<rect x="189.292" y="126.161" width="10.4066" height="82.8" rx="5.20328" fill="#FFA800"/>
<rect x="217.797" y="113.04" width="10.4066" height="95.9213" rx="5.20328" fill="#FFA800"/>
<rect x="246.302" y="143.354" width="10.4066" height="65.6066" rx="5.20328" fill="#FFA800"/>
<rect x="274.807" y="108.515" width="10.4066" height="100.446" rx="5.20328" fill="#FFA800"/>
<rect x="303.312" y="130.233" width="10.4066" height="78.7279" rx="5.20328" fill="#FFA800"/>
<rect x="331.816" y="101.728" width="10.4066" height="107.233" rx="5.20328" fill="#FFA800"/>
<path d="M161.832 217.706H162.547L164.228 221.812H164.286L165.967 217.706H166.681V222.652H166.121V218.894H166.073L164.527 222.652H163.986L162.44 218.894H162.392V222.652H161.832V217.706ZM169.312 222.73C168.977 222.73 168.683 222.65 168.431 222.491C168.179 222.331 167.983 222.108 167.841 221.822C167.701 221.535 167.631 221.2 167.631 220.817C167.631 220.43 167.701 220.093 167.841 219.805C167.983 219.517 168.179 219.293 168.431 219.134C168.683 218.974 168.977 218.894 169.312 218.894C169.647 218.894 169.94 218.974 170.191 219.134C170.444 219.293 170.64 219.517 170.78 219.805C170.922 220.093 170.993 220.43 170.993 220.817C170.993 221.2 170.922 221.535 170.78 221.822C170.64 222.108 170.444 222.331 170.191 222.491C169.94 222.65 169.647 222.73 169.312 222.73ZM169.312 222.218C169.566 222.218 169.776 222.152 169.94 222.022C170.104 221.892 170.226 221.72 170.305 221.508C170.384 221.295 170.423 221.065 170.423 220.817C170.423 220.569 170.384 220.338 170.305 220.124C170.226 219.91 170.104 219.736 169.94 219.604C169.776 219.472 169.566 219.406 169.312 219.406C169.058 219.406 168.848 219.472 168.684 219.604C168.52 219.736 168.398 219.91 168.319 220.124C168.241 220.338 168.201 220.569 168.201 220.817C168.201 221.065 168.241 221.295 168.319 221.508C168.398 221.72 168.52 221.892 168.684 222.022C168.848 222.152 169.058 222.218 169.312 222.218Z" fill="#565656"/>
<path d="M192.119 218.238V217.706H195.828V218.238H194.273V222.652H193.674V218.238H192.119ZM198.508 221.136V218.943H199.078V222.652H198.508V222.024H198.47C198.383 222.213 198.247 222.373 198.064 222.505C197.88 222.635 197.649 222.701 197.368 222.701C197.137 222.701 196.93 222.65 196.75 222.548C196.57 222.445 196.428 222.291 196.325 222.085C196.222 221.877 196.17 221.615 196.17 221.3V218.943H196.74V221.261C196.74 221.532 196.816 221.747 196.967 221.908C197.12 222.069 197.315 222.15 197.552 222.15C197.694 222.15 197.838 222.114 197.984 222.041C198.132 221.969 198.256 221.858 198.356 221.708C198.458 221.558 198.508 221.368 198.508 221.136Z" fill="#565656"/>
<path d="M221.567 222.652L220.214 217.706H220.823L221.856 221.735H221.905L222.958 217.706H223.634L224.687 221.735H224.735L225.769 217.706H226.377L225.025 222.652H224.407L223.315 218.711H223.276L222.185 222.652H221.567ZM228.256 222.73C227.899 222.73 227.591 222.651 227.331 222.493C227.074 222.334 226.875 222.111 226.735 221.826C226.596 221.54 226.527 221.206 226.527 220.827C226.527 220.447 226.596 220.112 226.735 219.822C226.875 219.53 227.07 219.303 227.319 219.141C227.571 218.977 227.864 218.894 228.198 218.894C228.392 218.894 228.582 218.927 228.771 218.991C228.959 219.055 229.131 219.16 229.285 219.305C229.44 219.448 229.563 219.638 229.655 219.875C229.747 220.112 229.792 220.403 229.792 220.749V220.991H226.933V220.498H229.213C229.213 220.289 229.171 220.102 229.087 219.938C229.005 219.774 228.888 219.644 228.735 219.549C228.583 219.454 228.405 219.406 228.198 219.406C227.971 219.406 227.775 219.463 227.609 219.575C227.445 219.687 227.319 219.831 227.23 220.01C227.141 220.189 227.097 220.381 227.097 220.585V220.913C227.097 221.194 227.145 221.431 227.242 221.626C227.34 221.819 227.476 221.966 227.65 222.068C227.824 222.168 228.026 222.218 228.256 222.218C228.406 222.218 228.541 222.197 228.662 222.155C228.785 222.111 228.89 222.047 228.979 221.962C229.067 221.875 229.136 221.767 229.184 221.638L229.735 221.793C229.677 221.979 229.579 222.144 229.442 222.285C229.305 222.425 229.136 222.535 228.935 222.614C228.734 222.691 228.508 222.73 228.256 222.73Z" fill="#565656"/>
<path d="M251.149 218.238V217.706H254.859V218.238H253.304V222.652H252.705V218.238H251.149ZM256.276 220.421V222.652H255.706V217.706H256.276V219.522H256.324C256.411 219.331 256.542 219.179 256.716 219.066C256.891 218.952 257.125 218.894 257.416 218.894C257.669 218.894 257.89 218.945 258.08 219.047C258.27 219.146 258.417 219.3 258.522 219.508C258.628 219.714 258.681 219.976 258.681 220.295V222.652H258.112V220.334C258.112 220.039 258.035 219.811 257.882 219.65C257.731 219.488 257.521 219.406 257.252 219.406C257.065 219.406 256.898 219.446 256.749 219.525C256.603 219.604 256.487 219.719 256.402 219.87C256.318 220.021 256.276 220.205 256.276 220.421Z" fill="#565656"/>
<path d="M280.278 222.652V217.706H283.244V218.238H280.877V219.909H283.021V220.44H280.877V222.652H280.278ZM284.152 222.652V218.943H284.703V219.503H284.742C284.809 219.319 284.932 219.171 285.109 219.056C285.286 218.942 285.485 218.885 285.708 218.885C285.749 218.885 285.802 218.886 285.865 218.887C285.927 218.889 285.975 218.891 286.007 218.894V219.474C285.988 219.469 285.943 219.462 285.874 219.452C285.807 219.441 285.735 219.435 285.659 219.435C285.479 219.435 285.318 219.473 285.176 219.549C285.036 219.623 284.925 219.726 284.843 219.858C284.762 219.988 284.722 220.137 284.722 220.305V222.652H284.152Z" fill="#565656"/>
<path d="M310.047 218.943C310.018 218.698 309.901 218.508 309.695 218.373C309.489 218.238 309.236 218.17 308.936 218.17C308.718 218.17 308.526 218.205 308.362 218.276C308.199 218.347 308.072 218.444 307.98 218.568C307.89 218.692 307.845 218.833 307.845 218.991C307.845 219.123 307.876 219.237 307.939 219.332C308.003 219.425 308.086 219.503 308.185 219.566C308.285 219.627 308.39 219.678 308.499 219.718C308.609 219.757 308.709 219.788 308.801 219.812L309.304 219.947C309.432 219.981 309.576 220.028 309.733 220.087C309.893 220.147 310.045 220.228 310.19 220.331C310.336 220.433 310.457 220.563 310.552 220.723C310.647 220.882 310.695 221.078 310.695 221.31C310.695 221.577 310.625 221.818 310.485 222.034C310.346 222.25 310.143 222.421 309.876 222.548C309.61 222.676 309.287 222.739 308.908 222.739C308.553 222.739 308.247 222.682 307.987 222.568C307.73 222.453 307.527 222.294 307.379 222.09C307.232 221.885 307.149 221.648 307.13 221.377H307.748C307.764 221.564 307.827 221.718 307.937 221.841C308.048 221.962 308.188 222.052 308.357 222.111C308.528 222.169 308.711 222.198 308.908 222.198C309.136 222.198 309.341 222.161 309.523 222.087C309.705 222.012 309.849 221.907 309.956 221.773C310.062 221.638 310.115 221.48 310.115 221.3C310.115 221.136 310.069 221.002 309.977 220.899C309.886 220.796 309.765 220.712 309.615 220.648C309.465 220.583 309.304 220.527 309.13 220.479L308.521 220.305C308.135 220.194 307.829 220.035 307.603 219.829C307.378 219.623 307.265 219.353 307.265 219.02C307.265 218.743 307.34 218.502 307.49 218.295C307.641 218.088 307.844 217.927 308.098 217.812C308.354 217.697 308.64 217.639 308.956 217.639C309.275 217.639 309.558 217.696 309.806 217.81C310.054 217.923 310.25 218.077 310.395 218.274C310.542 218.47 310.619 218.693 310.627 218.943H310.047ZM312.694 222.739C312.459 222.739 312.245 222.695 312.054 222.606C311.862 222.516 311.71 222.387 311.597 222.218C311.485 222.047 311.428 221.841 311.428 221.599C311.428 221.387 311.47 221.215 311.554 221.083C311.638 220.949 311.749 220.844 311.89 220.769C312.03 220.693 312.184 220.637 312.353 220.599C312.524 220.561 312.695 220.53 312.868 220.508C313.093 220.479 313.276 220.457 313.416 220.443C313.558 220.426 313.661 220.4 313.725 220.363C313.791 220.326 313.824 220.261 313.824 220.17V220.15C313.824 219.912 313.759 219.727 313.628 219.595C313.5 219.463 313.304 219.397 313.042 219.397C312.769 219.397 312.556 219.456 312.402 219.575C312.247 219.695 312.138 219.822 312.076 219.957L311.535 219.764C311.631 219.538 311.76 219.363 311.921 219.237C312.084 219.11 312.261 219.022 312.452 218.972C312.646 218.92 312.835 218.894 313.022 218.894C313.141 218.894 313.278 218.909 313.433 218.938C313.589 218.965 313.74 219.022 313.884 219.109C314.031 219.196 314.153 219.328 314.249 219.503C314.346 219.679 314.394 219.914 314.394 220.208V222.652H313.824V222.15H313.795C313.756 222.231 313.692 222.317 313.602 222.408C313.512 222.5 313.392 222.578 313.242 222.643C313.092 222.707 312.91 222.739 312.694 222.739ZM312.781 222.227C313.006 222.227 313.196 222.183 313.351 222.094C313.507 222.006 313.624 221.892 313.703 221.752C313.784 221.611 313.824 221.464 313.824 221.31V220.788C313.8 220.817 313.747 220.843 313.665 220.868C313.584 220.89 313.491 220.91 313.385 220.928C313.28 220.944 313.178 220.959 313.078 220.971C312.98 220.983 312.9 220.992 312.839 221C312.691 221.02 312.552 221.051 312.423 221.095C312.296 221.136 312.193 221.2 312.114 221.285C312.037 221.369 311.998 221.483 311.998 221.628C311.998 221.826 312.072 221.976 312.218 222.078C312.366 222.177 312.554 222.227 312.781 222.227Z" fill="#565656"/>
<path d="M338.896 218.943C338.867 218.698 338.749 218.508 338.543 218.373C338.337 218.238 338.084 218.17 337.785 218.17C337.566 218.17 337.374 218.205 337.21 218.276C337.047 218.347 336.92 218.444 336.829 218.568C336.738 218.692 336.693 218.833 336.693 218.991C336.693 219.123 336.725 219.237 336.787 219.332C336.852 219.425 336.934 219.503 337.034 219.566C337.134 219.627 337.238 219.678 337.348 219.718C337.457 219.757 337.558 219.788 337.65 219.812L338.152 219.947C338.281 219.981 338.424 220.028 338.582 220.087C338.741 220.147 338.893 220.228 339.038 220.331C339.185 220.433 339.306 220.563 339.401 220.723C339.496 220.882 339.543 221.078 339.543 221.31C339.543 221.577 339.473 221.818 339.333 222.034C339.195 222.25 338.992 222.421 338.724 222.548C338.459 222.676 338.136 222.739 337.756 222.739C337.402 222.739 337.095 222.682 336.836 222.568C336.578 222.453 336.375 222.294 336.227 222.09C336.081 221.885 335.998 221.648 335.978 221.377H336.597C336.613 221.564 336.676 221.718 336.785 221.841C336.896 221.962 337.036 222.052 337.205 222.111C337.376 222.169 337.56 222.198 337.756 222.198C337.985 222.198 338.19 222.161 338.372 222.087C338.554 222.012 338.698 221.907 338.804 221.773C338.91 221.638 338.963 221.48 338.963 221.3C338.963 221.136 338.918 221.002 338.826 220.899C338.734 220.796 338.613 220.712 338.464 220.648C338.314 220.583 338.152 220.527 337.978 220.479L337.37 220.305C336.983 220.194 336.677 220.035 336.452 219.829C336.226 219.623 336.114 219.353 336.114 219.02C336.114 218.743 336.189 218.502 336.338 218.295C336.49 218.088 336.692 217.927 336.947 217.812C337.203 217.697 337.489 217.639 337.804 217.639C338.123 217.639 338.406 217.696 338.654 217.81C338.902 217.923 339.099 218.077 339.244 218.274C339.39 218.47 339.467 218.693 339.475 218.943H338.896ZM342.788 221.136V218.943H343.358V222.652H342.788V222.024H342.75C342.663 222.213 342.528 222.373 342.344 222.505C342.161 222.635 341.929 222.701 341.648 222.701C341.417 222.701 341.211 222.65 341.03 222.548C340.85 222.445 340.708 222.291 340.605 222.085C340.502 221.877 340.451 221.615 340.451 221.3V218.943H341.021V221.261C341.021 221.532 341.096 221.747 341.248 221.908C341.401 222.069 341.595 222.15 341.832 222.15C341.974 222.15 342.118 222.114 342.264 222.041C342.412 221.969 342.536 221.858 342.636 221.708C342.738 221.558 342.788 221.368 342.788 221.136Z" fill="#565656"/>
</g>
<defs>
<filter id="filter0_d_511_3599" x="0.661644" y="0.422297" width="427.235" height="293.103" filterUnits="userSpaceOnUse" color-interpolation-filters="sRGB">
<feFlood flood-opacity="0" result="BackgroundImageFix"/>
<feColorMatrix in="SourceAlpha" type="matrix" values="0 0 0 0 0 0 0 0 0 0 0 0 0 0 0 0 0 0 127 0" result="hardAlpha"/>
<feOffset dx="22.1705" dy="14.9312"/>
<feGaussianBlur stdDeviation="18.7544"/>
<feComposite in2="hardAlpha" operator="out"/>
<feColorMatrix type="matrix" values="0 0 0 0 0 0 0 0 0 0 0 0 0 0 0 0 0 0 0.1 0"/>
<feBlend mode="normal" in2="BackgroundImageFix" result="effect1_dropShadow_511_3599"/>
<feBlend mode="normal" in="SourceGraphic" in2="effect1_dropShadow_511_3599" result="shape"/>
</filter>
</defs>
</svg>
