<svg id="Calque_1" data-name="Calque 1" xmlns="http://www.w3.org/2000/svg" viewBox="0 0 3370.9 1683.78"><defs><style>.cls-1{fill:#fff;}</style></defs><path class="cls-1" d="M1057.87,1243.91v-8.71H1121v8.71h-26.63v78.63h-9.6v-78.63Z"/><path class="cls-1" d="M1141.17,1322.54h-9.47v-90.62h9.47v31a45.2,45.2,0,0,1,19.43-4.8q12.63,0,17,6.82t4.35,24.23v33.32h-9.46v-33.07q0-13.12-2.59-18c-1.73-3.24-5.36-4.86-10.92-4.86a42.09,42.09,0,0,0-15.39,2.9l-2.4.89Z"/><path class="cls-1" d="M1199.47,1245.17v-11h9.47v11Zm0,77.37v-63.11h9.47v63.11Z"/><path class="cls-1" d="M1236.58,1322.54h-9.47v-63.11h9.34v4.42q10.23-5.67,19.56-5.68,12.63,0,17,6.82t4.35,24.23v33.32H1268v-33.07q0-13.12-2.58-18t-11.05-4.86a33,33,0,0,0-8.52,1.2,43.2,43.2,0,0,0-6.87,2.33l-2.4,1.14Z"/><path class="cls-1" d="M1304.35,1322.54h-9.47v-90.62h9.47v53.51l9.84-.5,18-25.5H1343l-20.57,29,21.45,34.08h-10.73l-18.8-29.28-10,.38Z"/><path class="cls-1" d="M1354.71,1322.54v-14.39h10.34v14.39Z"/><path class="cls-1" d="M1404.3,1322.54l24-87.34h21.2l24,87.34h-9.59l-6.31-22.47H1420.2l-6.31,22.47Zm31.3-79-13.25,47.84h33.06l-13.25-47.84Z"/><path class="cls-1" d="M1525,1259.43h9.47v63.11H1525v-4.42q-9.46,5.69-18.67,5.68-12.88,0-17.11-6.69t-4.22-24.73v-33h9.46v32.82q0,13.76,2.4,18.42t10.85,4.67a31.29,31.29,0,0,0,8.46-1.19,38.22,38.22,0,0,0,6.56-2.34l2.27-1.14Z"/><path class="cls-1" d="M1585.28,1267.64h-20.07v30.16q0,10.86,1.58,14.26c1,2.28,3.55,3.41,7.51,3.41l11.23-.76.63,7.83a87.07,87.07,0,0,1-12.87,1.39q-9.84,0-13.63-4.8t-3.79-18.3v-33.19h-9v-8.21h9v-19.3h9.34v19.3h20.07Z"/><path class="cls-1" d="M1594.11,1290.86q0-17.29,6.19-25t20.88-7.7q14.71,0,20.83,7.7t6.12,25q0,17.3-5.81,25.12t-21.2,7.82q-15.39,0-21.2-7.82T1594.11,1290.86Zm9.72-.19q0,13.82,3.35,19.37t14,5.56q10.66,0,14-5.49t3.28-19.38q0-13.87-3.66-19.12t-13.57-5.23q-9.9,0-13.63,5.23T1603.83,1290.67Z"/><path class="cls-1" d="M1673,1322.54h-9.46v-63.11h9.34v4.42q9.47-5.67,18.42-5.68,11.74,0,16.41,6.44a46.26,46.26,0,0,1,10.79-4.48,42.13,42.13,0,0,1,11.68-2q12.61,0,17,6.75t4.35,24.3v33.32H1742v-33.07q0-13.12-2.53-18t-10.72-4.86a32.74,32.74,0,0,0-8.59,1.2,44,44,0,0,0-6.81,2.33l-2.4,1.14q1.63,4.15,1.64,18.42v32.82h-9.46V1290q0-13.63-2.46-18.49c-1.65-3.24-5.24-4.86-10.8-4.86a30.17,30.17,0,0,0-8.26,1.2,39.57,39.57,0,0,0-6.5,2.33l-2.15,1.14Z"/><path class="cls-1" d="M1813.59,1278.49v32.31q.38,4.68,7.32,5.55l-.38,7.45q-10,0-15-5a55.44,55.44,0,0,1-22.72,5q-8.7,0-13.25-4.92t-4.54-14.14q0-9.21,4.67-13.56t14.64-5.37l19.81-1.89v-5.43q0-6.43-2.78-9.21a10.23,10.23,0,0,0-7.57-2.78,181.83,181.83,0,0,0-21,1.26l-3.91.38-.38-7.19a127.35,127.35,0,0,1,24.61-2.78q10.72,0,15.59,4.92T1813.59,1278.49Zm-38.87,25.75q0,11.61,9.59,11.61a51.17,51.17,0,0,0,16.91-2.9l2.9-1v-20.83l-18.68,1.77c-3.78.34-6.52,1.43-8.2,3.28S1774.72,1300.7,1774.72,1304.24Z"/><path class="cls-1" d="M1865,1267.64h-20.06v30.16q0,10.86,1.57,14.26c1,2.28,3.56,3.41,7.51,3.41l11.24-.76.63,7.83a87.18,87.18,0,0,1-12.88,1.39q-9.84,0-13.63-4.8t-3.78-18.3v-33.19h-9v-8.21h9v-19.3h9.34v19.3H1865Z"/><path class="cls-1" d="M1919.47,1314.71l3.66-.37.26,7.44a180.73,180.73,0,0,1-24.61,2q-13.63,0-19.31-7.89t-5.68-24.54q0-33.19,26.37-33.2,12.75,0,19.06,7.13t6.31,22.41l-.5,7.19h-41.65q0,10.47,3.79,15.52t13.18,5Q1909.76,1315.47,1919.47,1314.71Zm-3.4-27.38q0-11.61-3.73-16.41t-12.11-4.8q-8.4,0-12.62,5.05t-4.36,16.16Z"/><path class="cls-1" d="M1939.67,1322.54v-14.39H1950v14.39Z"/><path class="cls-1" d="M2006.68,1289.09v33.45H1997V1235.2h32.31q13.88,0,20.89,6.44t7,20.07q0,20.19-16,25.36l16.79,35.47h-10.73l-15.78-33.45Zm22.72-8.58q17.79,0,17.79-18.36t-17.92-18.36h-22.59v36.72Z"/><path class="cls-1" d="M2114.84,1314.71l3.66-.37.25,7.44a180.48,180.48,0,0,1-24.61,2q-13.63,0-19.31-7.89t-5.68-24.54q0-33.19,26.38-33.2,12.75,0,19.06,7.13t6.31,22.41l-.51,7.19h-41.65q0,10.47,3.79,15.52t13.19,5Q2105.13,1315.47,2114.84,1314.71Zm-3.41-27.38q0-11.61-3.72-16.41t-12.12-4.8q-8.39,0-12.62,5.05t-4.35,16.16Z"/><path class="cls-1" d="M2129.86,1259.43h9.46l12.75,54.91h2l15-53.64H2179l15,53.64h2.15l12.62-54.91h9.46l-15,63.11h-15.77L2174,1273.19l-13.38,49.35h-15.77Z"/><path class="cls-1" d="M2227.79,1290.86q0-17.29,6.19-25t20.89-7.7q14.7,0,20.82,7.7t6.12,25q0,17.3-5.8,25.12t-21.21,7.82q-15.39,0-21.2-7.82T2227.79,1290.86Zm9.72-.19q0,13.82,3.35,19.37t14,5.56q10.66,0,13.94-5.49t3.28-19.38q0-13.87-3.66-19.12t-13.56-5.23q-9.91,0-13.63,5.23T2237.51,1290.67Z"/><path class="cls-1" d="M2297.21,1322.54v-63.11h9.34V1268a61.48,61.48,0,0,1,23.09-10v9.59a67.8,67.8,0,0,0-11,3.15,73.54,73.54,0,0,0-8.77,3.79l-3.16,1.64v46.32Z"/><path class="cls-1" d="M2350.34,1322.54h-9.47v-90.62h9.47v53.51l9.84-.5,18.05-25.5H2389l-20.57,29,21.45,34.08h-10.72l-18.81-29.28-10,.38Z"/><path class="cls-1" d="M2400.7,1322.54v-14.39H2411v14.39Z"/><path class="cls-1" d="M779.48,978.63H880.17c47.62,0,86.17,39,86.17,86.63v6.35c0,47.62-38.55,86.63-86.17,86.63H715.08v-72.12H880.17a14.61,14.61,0,0,0,14.51-14.51c0-9.52-1.36-20.86-14.51-20.86H779.48c-47.17,0-86.18-39-86.18-86.63v-6.35c0-47.63,39-86.63,86.18-86.63H945v72.11H779.48a14.24,14.24,0,0,0-14.06,14.52C765.42,967.29,766.33,978.63,779.48,978.63Z"/><path class="cls-1" d="M1244.37,871.59v72.12H1125.54c-24,0-44.9,15-55.79,35.38H1190.4v72.11H1069.75c10.89,20.86,31.75,35.38,55.79,35.38h118.83v72.11H1125.54c-78,0-136.52-67.58-136.52-143.32,0-76.2,58.51-143.78,136.52-143.78Z"/><path class="cls-1" d="M1538.27,1007.21v151.48h-71.21V1007.21c0-36.29-26.3-71.21-64.4-71.21s-64.41,34.92-64.41,71.21v151.48h-71.2V1007.21c0-75.75,58-142.87,135.61-142.87S1538.27,931.46,1538.27,1007.21Z"/><path class="cls-1" d="M1829.45,871.14l-62.13,117c-15.42,28.12-29.94,57.14-46.27,84.81l-2.26,3.63-10.89,19.5c-20,35.83-65.31,62.59-106.13,62.59H1561v-72.11h40.82c14.06,0,31.75-10.44,40.37-21.32l-83.91-194.12h78.46l49.44,114.75c21.32-37.65,41.27-76.2,61.23-114.75Z"/><path class="cls-1" d="M2105.67,1016.73c0,81.64-64.4,151.49-147.4,151.49s-147.86-69.85-147.86-151.49c0-82.09,64.86-151.49,147.86-151.49S2105.67,934.64,2105.67,1016.73Zm-71.21,0c0-42.63-32.65-80.28-76.19-80.28s-76.65,37.65-76.65,80.28c0,42.18,32.65,79.82,76.65,79.82C2001.81,1096.55,2034.46,1058.91,2034.46,1016.73Z"/><path class="cls-1" d="M2399.57,1007.21v151.48h-71.21V1007.21c0-36.29-26.3-71.21-64.4-71.21s-64.41,34.92-64.41,71.21v151.48h-71.2V1007.21c0-75.75,58.05-142.87,135.61-142.87S2399.57,931.46,2399.57,1007.21Z"/><path class="cls-1" d="M2677.6,871.59v72.12H2558.77c-24,0-44.9,15-55.79,35.38h120.65v72.11H2503c10.89,20.86,31.75,35.38,55.79,35.38H2677.6v72.11H2558.77c-78,0-136.52-67.58-136.52-143.32,0-76.2,58.51-143.78,136.52-143.78Z"/><path class="cls-1" d="M1649.62,769.36c-37.25-4.17-66.9-18.1-94.24-37.17-79-55.1-113.64-155.94-85.73-248.07,7-23,9.07-24.23,30.22-11.08,95.22,59.23,146.73,144,149,257.1Z"/><path class="cls-1" d="M1721.28,769.36c37.25-4.17,66.9-18.1,94.24-37.17,79-55.1,113.64-155.94,85.73-248.07-7-23-9.08-24.23-30.22-11.08-95.22,59.23-146.73,144-149,257.1Z"/><path class="cls-1" d="M1685.66,554.43a10.15,10.15,0,0,0,8.81-4.95c33.67-55.75,76.29-98.75,130.21-131.65,17-10.34,19.06-34.38,3.66-46.92l-.3-.24c-40.6-32.81-94.21-50.67-144.18-51h0c-50,.15-99,17.8-139.79,50.44l-.3.24c-15.46,12.47-13.45,36.52,3.46,46.93,53.77,33.13,96.21,76.31,129.65,132.2a10.15,10.15,0,0,0,8.78,5"/></svg>