<svg width="35" height="35" viewBox="0 0 35 35" fill="none" xmlns="http://www.w3.org/2000/svg">
<path d="M5.83301 32.0833H26.2497C27.0232 32.0833 27.7651 31.776 28.3121 31.229C28.8591 30.682 29.1663 29.9402 29.1663 29.1666V10.2083L21.8747 2.91663H8.74967C7.97613 2.91663 7.23426 3.22392 6.68728 3.7709C6.1403 4.31788 5.83301 5.05974 5.83301 5.83329V11.6666" stroke="white" stroke-width="3" stroke-linecap="round" stroke-linejoin="round"/>
<path d="M20.417 2.91663V8.74996C20.417 9.52351 20.7243 10.2654 21.2713 10.8124C21.8182 11.3593 22.5601 11.6666 23.3337 11.6666H29.167" stroke="white" stroke-width="3" stroke-linecap="round" stroke-linejoin="round"/>
<path d="M8.75033 20.4167C8.75033 18.8058 7.44449 17.5 5.83366 17.5C4.22283 17.5 2.91699 18.8058 2.91699 20.4167V23.3333C2.91699 24.9442 4.22283 26.25 5.83366 26.25C7.44449 26.25 8.75033 24.9442 8.75033 23.3333V20.4167Z" stroke="white" stroke-width="3" stroke-linecap="round" stroke-linejoin="round"/>
<path d="M14.583 17.5H17.4997V26.25" stroke="white" stroke-width="3" stroke-linecap="round" stroke-linejoin="round"/>
<path d="M14.583 26.25H20.4163" stroke="white" stroke-width="3" stroke-linecap="round" stroke-linejoin="round"/>
</svg>
