<svg width="648" height="466" viewBox="0 0 648 466" fill="none" xmlns="http://www.w3.org/2000/svg">
<g filter="url(#filter0_d_511_3600)">
<rect x="34" y="50" width="481.743" height="300" rx="18.6722" fill="white"/>
<path d="M68.289 92.1411H65.52L69.7391 79.9193H73.0691L77.2822 92.1411H74.5132L71.4518 82.7122H71.3563L68.289 92.1411ZM68.1159 87.3371H74.6565V89.3542H68.1159V87.3371ZM81.2478 86.8418V92.1411H78.7055V82.9748H81.1284V84.592H81.2358C81.4387 84.0589 81.7789 83.6372 82.2563 83.3269C82.7337 83.0126 83.3126 82.8554 83.9929 82.8554C84.6294 82.8554 85.1844 82.9947 85.6579 83.2731C86.1313 83.5516 86.4993 83.9495 86.7619 84.4667C87.0245 84.9799 87.1558 85.5926 87.1558 86.3047V92.1411H84.6135V86.7583C84.6175 86.1973 84.4743 85.7597 84.1839 85.4454C83.8934 85.1271 83.4936 84.968 82.9844 84.968C82.6422 84.968 82.3399 85.0416 82.0773 85.1888C81.8187 85.336 81.6158 85.5508 81.4686 85.8333C81.3253 86.1118 81.2517 86.4479 81.2478 86.8418ZM91.7733 92.3142C91.1884 92.3142 90.6672 92.2127 90.2097 92.0098C89.7522 91.8029 89.3902 91.4986 89.1236 91.0968C88.861 90.691 88.7297 90.1857 88.7297 89.581C88.7297 89.0717 88.8232 88.6441 89.0102 88.2979C89.1972 87.9518 89.4518 87.6733 89.7741 87.4625C90.0963 87.2516 90.4624 87.0925 90.8721 86.985C91.2859 86.8776 91.7195 86.802 92.1731 86.7583C92.7062 86.7026 93.1359 86.6509 93.4621 86.6031C93.7883 86.5514 94.0251 86.4758 94.1723 86.3763C94.3195 86.2769 94.3931 86.1297 94.3931 85.9347V85.8989C94.3931 85.521 94.2737 85.2286 94.035 85.0217C93.8003 84.8148 93.4661 84.7114 93.0324 84.7114C92.5749 84.7114 92.2109 84.8128 91.9404 85.0157C91.6698 85.2146 91.4908 85.4653 91.4033 85.7676L89.052 85.5767C89.1713 85.0197 89.4061 84.5383 89.7562 84.1325C90.1063 83.7227 90.5578 83.4084 91.1108 83.1896C91.6678 82.9668 92.3123 82.8554 93.0444 82.8554C93.5536 82.8554 94.041 82.9151 94.5065 83.0344C94.9759 83.1538 95.3917 83.3388 95.7537 83.5894C96.1197 83.8401 96.4082 84.1623 96.619 84.5562C96.8299 84.9461 96.9353 85.4136 96.9353 85.9586V92.1411H94.5244V90.87H94.4527C94.3055 91.1564 94.1086 91.4091 93.8619 91.6279C93.6153 91.8427 93.3189 92.0118 92.9728 92.1351C92.6266 92.2545 92.2268 92.3142 91.7733 92.3142ZM92.5013 90.5597C92.8753 90.5597 93.2055 90.4861 93.4919 90.3389C93.7784 90.1877 94.0032 89.9848 94.1663 89.7302C94.3294 89.4756 94.411 89.1871 94.411 88.8649V87.8921C94.3314 87.9438 94.222 87.9916 94.0827 88.0354C93.9475 88.0751 93.7943 88.1129 93.6232 88.1487C93.4522 88.1806 93.2811 88.2104 93.11 88.2383C92.9389 88.2621 92.7838 88.284 92.6445 88.3039C92.3462 88.3477 92.0856 88.4173 91.8628 88.5128C91.64 88.6082 91.4669 88.7375 91.3436 88.9007C91.2203 89.0598 91.1586 89.2587 91.1586 89.4974C91.1586 89.8436 91.2839 90.1081 91.5345 90.2911C91.7892 90.4702 92.1114 90.5597 92.5013 90.5597ZM101.45 79.9193V92.1411H98.9076V79.9193H101.45ZM103.486 92.1411V82.9748H106.029V92.1411H103.486ZM104.763 81.7932C104.385 81.7932 104.061 81.6678 103.791 81.4172C103.524 81.1626 103.391 80.8582 103.391 80.5041C103.391 80.154 103.524 79.8537 103.791 79.603C104.061 79.3484 104.385 79.2211 104.763 79.2211C105.141 79.2211 105.464 79.3484 105.73 79.603C106.001 79.8537 106.136 80.154 106.136 80.5041C106.136 80.8582 106.001 81.1626 105.73 81.4172C105.464 81.6678 105.141 81.7932 104.763 81.7932ZM112.941 82.9748V84.8844H107.421V82.9748H112.941ZM108.674 80.7787H111.216V89.3244C111.216 89.5591 111.252 89.7421 111.323 89.8734C111.395 90.0007 111.494 90.0902 111.622 90.1419C111.753 90.1937 111.904 90.2195 112.075 90.2195C112.195 90.2195 112.314 90.2096 112.433 90.1897C112.553 90.1658 112.644 90.1479 112.708 90.136L113.108 92.0277C112.98 92.0675 112.801 92.1133 112.571 92.165C112.34 92.2207 112.059 92.2545 111.729 92.2664C111.116 92.2903 110.579 92.2087 110.118 92.0218C109.66 91.8348 109.304 91.5443 109.05 91.1505C108.795 90.7566 108.67 90.2593 108.674 89.6586V80.7787ZM114.597 92.1411V82.9748H117.139V92.1411H114.597ZM115.874 81.7932C115.496 81.7932 115.172 81.6678 114.901 81.4172C114.634 81.1626 114.501 80.8582 114.501 80.5041C114.501 80.154 114.634 79.8537 114.901 79.603C115.172 79.3484 115.496 79.2211 115.874 79.2211C116.252 79.2211 116.574 79.3484 116.84 79.603C117.111 79.8537 117.246 80.154 117.246 80.5041C117.246 80.8582 117.111 81.1626 116.84 81.4172C116.574 81.6678 116.252 81.7932 115.874 81.7932ZM123.317 92.3201C122.378 92.3201 121.57 92.1212 120.894 91.7234C120.222 91.3216 119.704 90.7646 119.342 90.0524C118.984 89.3403 118.805 88.5207 118.805 87.5937C118.805 86.6548 118.986 85.8313 119.348 85.1231C119.714 84.411 120.234 83.856 120.906 83.4581C121.578 83.0563 122.378 82.8554 123.305 82.8554C124.105 82.8554 124.805 83.0006 125.406 83.291C126.006 83.5815 126.482 83.9893 126.832 84.5144C127.182 85.0396 127.375 85.6562 127.411 86.3644H125.012C124.944 85.9069 124.765 85.5389 124.475 85.2604C124.188 84.9779 123.812 84.8367 123.347 84.8367C122.953 84.8367 122.609 84.9441 122.314 85.1589C122.024 85.3698 121.797 85.6781 121.634 86.0839C121.471 86.4897 121.389 86.9811 121.389 87.5579C121.389 88.1428 121.469 88.6401 121.628 89.0499C121.791 89.4596 122.02 89.7719 122.314 89.9868C122.609 90.2016 122.953 90.309 123.347 90.309C123.637 90.309 123.898 90.2494 124.129 90.13C124.363 90.0107 124.556 89.8376 124.707 89.6108C124.863 89.3801 124.964 89.1036 125.012 88.7813H127.411C127.371 89.4815 127.18 90.0982 126.838 90.6313C126.5 91.1604 126.032 91.5742 125.435 91.8726C124.839 92.171 124.132 92.3201 123.317 92.3201Z" fill="black"/>
<path d="M65.9971 109.792V102.55H70.3681V103.328H66.8742V105.775H70.1418V106.553H66.8742V109.014H70.4247V109.792H65.9971ZM71.8357 109.792V104.361H72.642V105.181H72.6986C72.7976 104.912 72.9768 104.694 73.2362 104.527C73.4955 104.359 73.7878 104.276 74.1132 104.276C74.1745 104.276 74.2511 104.277 74.3431 104.279C74.435 104.282 74.5045 104.285 74.5517 104.29V105.139C74.5234 105.132 74.4586 105.121 74.3572 105.107C74.2582 105.09 74.1533 105.082 74.0425 105.082C73.7784 105.082 73.5426 105.137 73.3352 105.248C73.1301 105.357 72.9674 105.508 72.8472 105.701C72.7293 105.892 72.6703 106.11 72.6703 106.355V109.792H71.8357ZM76.3756 106.525V109.792H75.541V104.361H76.3473V105.209H76.418C76.5453 104.933 76.7387 104.712 76.998 104.544C77.2573 104.375 77.5921 104.29 78.0023 104.29C78.3701 104.29 78.6919 104.365 78.9678 104.516C79.2436 104.665 79.4582 104.891 79.6114 105.195C79.7647 105.497 79.8413 105.879 79.8413 106.341V109.792H79.0067V106.398C79.0067 105.971 78.8959 105.638 78.6743 105.4C78.4526 105.16 78.1485 105.04 77.7619 105.04C77.4955 105.04 77.2573 105.097 77.0475 105.213C76.84 105.328 76.6762 105.497 76.556 105.719C76.4357 105.94 76.3756 106.209 76.3756 106.525ZM81.3663 109.792V104.361H82.2009V109.792H81.3663ZM81.7907 103.455C81.628 103.455 81.4878 103.4 81.3699 103.289C81.2544 103.178 81.1966 103.045 81.1966 102.889C81.1966 102.734 81.2544 102.601 81.3699 102.49C81.4878 102.379 81.628 102.324 81.7907 102.324C81.9534 102.324 82.0925 102.379 82.208 102.49C82.3259 102.601 82.3848 102.734 82.3848 102.889C82.3848 103.045 82.3259 103.178 82.208 103.289C82.0925 103.4 81.9534 103.455 81.7907 103.455ZM84.5641 106.525V109.792H83.7295V104.361H84.5358V105.209H84.6066C84.7339 104.933 84.9272 104.712 85.1865 104.544C85.4459 104.375 85.7807 104.29 86.1909 104.29C86.5587 104.29 86.8805 104.365 87.1563 104.516C87.4322 104.665 87.6467 104.891 87.7999 105.195C87.9532 105.497 88.0298 105.879 88.0298 106.341V109.792H87.1952V106.398C87.1952 105.971 87.0844 105.638 86.8628 105.4C86.6412 105.16 86.3371 105.04 85.9504 105.04C85.684 105.04 85.4459 105.097 85.2361 105.213C85.0286 105.328 84.8647 105.497 84.7445 105.719C84.6243 105.94 84.5641 106.209 84.5641 106.525ZM91.7475 111.943C91.3443 111.943 90.9977 111.891 90.7077 111.787C90.4178 111.686 90.1761 111.551 89.9828 111.384C89.7918 111.219 89.6398 111.042 89.5266 110.853L90.1914 110.387C90.2669 110.486 90.3624 110.599 90.4779 110.726C90.5934 110.856 90.7514 110.968 90.9518 111.062C91.1545 111.159 91.4197 111.207 91.7475 111.207C92.186 111.207 92.5479 111.101 92.8331 110.889C93.1184 110.677 93.261 110.344 93.261 109.891V108.788H93.1903C93.129 108.887 93.0418 109.01 92.9286 109.156C92.8178 109.3 92.6575 109.428 92.4477 109.541C92.2402 109.652 91.9596 109.708 91.606 109.708C91.1675 109.708 90.7738 109.604 90.4248 109.396C90.0783 109.189 89.8036 108.887 89.6009 108.491C89.4005 108.095 89.3003 107.614 89.3003 107.048C89.3003 106.492 89.3981 106.007 89.5938 105.595C89.7895 105.18 90.0618 104.859 90.4107 104.633C90.7596 104.404 91.1628 104.29 91.6201 104.29C91.9738 104.29 92.2543 104.349 92.4618 104.467C92.6716 104.582 92.8319 104.714 92.9428 104.863C93.0559 105.009 93.1432 105.129 93.2044 105.223H93.2893V104.361H94.0956V109.948C94.0956 110.415 93.9895 110.794 93.7773 111.087C93.5675 111.382 93.2846 111.597 92.9286 111.734C92.575 111.873 92.1812 111.943 91.7475 111.943ZM91.7192 108.958C92.0539 108.958 92.3369 108.881 92.5679 108.728C92.7989 108.575 92.9746 108.354 93.0948 108.067C93.2151 107.779 93.2752 107.435 93.2752 107.034C93.2752 106.643 93.2162 106.297 93.0984 105.998C92.9805 105.699 92.806 105.464 92.575 105.294C92.3439 105.124 92.0587 105.04 91.7192 105.04C91.3655 105.04 91.0708 105.129 90.8351 105.308C90.6017 105.488 90.426 105.728 90.3081 106.03C90.1926 106.332 90.1349 106.666 90.1349 107.034C90.1349 107.411 90.1938 107.745 90.3117 108.035C90.4319 108.323 90.6087 108.549 90.8421 108.714C91.0779 108.877 91.3702 108.958 91.7192 108.958ZM98.5373 109.792V102.55H100.985C101.55 102.55 102.015 102.647 102.378 102.84C102.741 103.031 103.01 103.294 103.184 103.629C103.359 103.963 103.446 104.344 103.446 104.771C103.446 105.198 103.359 105.576 103.184 105.906C103.01 106.236 102.742 106.495 102.381 106.684C102.021 106.87 101.56 106.963 100.999 106.963H99.0183V106.171H100.97C101.357 106.171 101.668 106.115 101.904 106.001C102.142 105.888 102.314 105.728 102.42 105.521C102.529 105.311 102.583 105.061 102.583 104.771C102.583 104.481 102.529 104.227 102.42 104.01C102.312 103.794 102.139 103.626 101.9 103.508C101.662 103.388 101.348 103.328 100.956 103.328H99.4144V109.792H98.5373ZM101.946 106.539L103.729 109.792H102.71L100.956 106.539H101.946ZM107.013 109.906C106.49 109.906 106.038 109.79 105.659 109.559C105.282 109.326 104.99 109 104.785 108.583C104.583 108.163 104.481 107.675 104.481 107.119C104.481 106.563 104.583 106.072 104.785 105.648C104.99 105.221 105.276 104.889 105.641 104.651C106.009 104.41 106.438 104.29 106.928 104.29C107.211 104.29 107.491 104.337 107.766 104.431C108.042 104.526 108.293 104.679 108.52 104.891C108.746 105.101 108.926 105.379 109.061 105.726C109.195 106.072 109.262 106.499 109.262 107.006V107.359H105.075V106.638H108.414C108.414 106.332 108.352 106.058 108.23 105.818C108.109 105.577 107.937 105.387 107.713 105.248C107.492 105.109 107.23 105.04 106.928 105.04C106.596 105.04 106.308 105.122 106.065 105.287C105.825 105.45 105.64 105.662 105.51 105.924C105.381 106.185 105.316 106.466 105.316 106.765V107.246C105.316 107.656 105.386 108.004 105.528 108.29C105.672 108.572 105.871 108.788 106.126 108.937C106.38 109.083 106.676 109.156 107.013 109.156C107.232 109.156 107.431 109.125 107.607 109.064C107.787 109 107.941 108.906 108.071 108.781C108.2 108.654 108.3 108.496 108.371 108.307L109.177 108.534C109.093 108.807 108.95 109.047 108.75 109.255C108.549 109.46 108.302 109.62 108.007 109.736C107.712 109.849 107.381 109.906 107.013 109.906ZM110.532 111.829V104.361H111.338V105.223H111.437C111.499 105.129 111.583 105.009 111.692 104.863C111.803 104.714 111.961 104.582 112.166 104.467C112.373 104.349 112.654 104.29 113.007 104.29C113.465 104.29 113.868 104.404 114.217 104.633C114.566 104.862 114.838 105.186 115.034 105.605C115.229 106.025 115.327 106.52 115.327 107.091C115.327 107.666 115.229 108.165 115.034 108.587C114.838 109.006 114.567 109.332 114.22 109.563C113.874 109.791 113.474 109.906 113.022 109.906C112.673 109.906 112.393 109.848 112.183 109.732C111.974 109.614 111.812 109.481 111.699 109.333C111.586 109.182 111.499 109.057 111.437 108.958H111.367V111.829H110.532ZM111.352 107.077C111.352 107.487 111.412 107.849 111.533 108.162C111.653 108.473 111.829 108.717 112.06 108.894C112.291 109.069 112.574 109.156 112.908 109.156C113.257 109.156 113.548 109.064 113.782 108.88C114.018 108.694 114.194 108.444 114.312 108.13C114.433 107.814 114.493 107.463 114.493 107.077C114.493 106.695 114.434 106.35 114.316 106.044C114.2 105.735 114.025 105.491 113.789 105.312C113.556 105.13 113.262 105.04 112.908 105.04C112.569 105.04 112.284 105.126 112.053 105.298C111.822 105.467 111.647 105.706 111.529 106.012C111.411 106.316 111.352 106.671 111.352 107.077ZM118.807 109.906C118.317 109.906 117.886 109.789 117.516 109.556C117.149 109.322 116.861 108.996 116.653 108.576C116.448 108.156 116.346 107.666 116.346 107.105C116.346 106.539 116.448 106.045 116.653 105.623C116.861 105.201 117.149 104.873 117.516 104.64C117.886 104.407 118.317 104.29 118.807 104.29C119.297 104.29 119.727 104.407 120.094 104.64C120.465 104.873 120.752 105.201 120.957 105.623C121.165 106.045 121.268 106.539 121.268 107.105C121.268 107.666 121.165 108.156 120.957 108.576C120.752 108.996 120.465 109.322 120.094 109.556C119.727 109.789 119.297 109.906 118.807 109.906ZM118.807 109.156C119.18 109.156 119.486 109.06 119.727 108.869C119.967 108.679 120.145 108.427 120.261 108.116C120.376 107.805 120.434 107.468 120.434 107.105C120.434 106.742 120.376 106.403 120.261 106.09C120.145 105.776 119.967 105.523 119.727 105.33C119.486 105.136 119.18 105.04 118.807 105.04C118.435 105.04 118.128 105.136 117.888 105.33C117.647 105.523 117.469 105.776 117.354 106.09C117.238 106.403 117.18 106.742 117.18 107.105C117.18 107.468 117.238 107.805 117.354 108.116C117.469 108.427 117.647 108.679 117.888 108.869C118.128 109.06 118.435 109.156 118.807 109.156ZM122.542 109.792V104.361H123.349V105.181H123.405C123.504 104.912 123.684 104.694 123.943 104.527C124.202 104.359 124.495 104.276 124.82 104.276C124.881 104.276 124.958 104.277 125.05 104.279C125.142 104.282 125.211 104.285 125.258 104.29V105.139C125.23 105.132 125.165 105.121 125.064 105.107C124.965 105.09 124.86 105.082 124.749 105.082C124.485 105.082 124.249 105.137 124.042 105.248C123.837 105.357 123.674 105.508 123.554 105.701C123.436 105.892 123.377 106.11 123.377 106.355V109.792H122.542ZM128.95 104.361V105.068H126.135V104.361H128.95ZM126.956 103.059H127.79V108.236C127.79 108.472 127.825 108.649 127.893 108.767C127.964 108.882 128.053 108.96 128.162 109C128.273 109.038 128.389 109.057 128.512 109.057C128.604 109.057 128.679 109.052 128.738 109.043C128.797 109.031 128.844 109.022 128.88 109.014L129.049 109.764C128.993 109.785 128.914 109.807 128.812 109.828C128.711 109.851 128.583 109.863 128.427 109.863C128.191 109.863 127.96 109.813 127.734 109.711C127.51 109.61 127.324 109.455 127.175 109.248C127.029 109.04 126.956 108.779 126.956 108.463V103.059ZM133.12 109.792V102.55H133.997V109.014H137.363V109.792H133.12ZM140.815 109.906C140.325 109.906 139.894 109.789 139.524 109.556C139.156 109.322 138.869 108.996 138.661 108.576C138.456 108.156 138.354 107.666 138.354 107.105C138.354 106.539 138.456 106.045 138.661 105.623C138.869 105.201 139.156 104.873 139.524 104.64C139.894 104.407 140.325 104.29 140.815 104.29C141.305 104.29 141.734 104.407 142.102 104.64C142.472 104.873 142.76 105.201 142.965 105.623C143.173 106.045 143.276 106.539 143.276 107.105C143.276 107.666 143.173 108.156 142.965 108.576C142.76 108.996 142.472 109.322 142.102 109.556C141.734 109.789 141.305 109.906 140.815 109.906ZM140.815 109.156C141.188 109.156 141.494 109.06 141.734 108.869C141.975 108.679 142.153 108.427 142.268 108.116C142.384 107.805 142.442 107.468 142.442 107.105C142.442 106.742 142.384 106.403 142.268 106.09C142.153 105.776 141.975 105.523 141.734 105.33C141.494 105.136 141.188 105.04 140.815 105.04C140.443 105.04 140.136 105.136 139.896 105.33C139.655 105.523 139.477 105.776 139.362 106.09C139.246 106.403 139.188 106.742 139.188 107.105C139.188 107.468 139.246 107.805 139.362 108.116C139.477 108.427 139.655 108.679 139.896 108.869C140.136 109.06 140.443 109.156 140.815 109.156ZM144.55 109.792V104.361H145.357V105.181H145.413C145.512 104.912 145.691 104.694 145.951 104.527C146.21 104.359 146.502 104.276 146.828 104.276C146.889 104.276 146.966 104.277 147.058 104.279C147.15 104.282 147.219 104.285 147.266 104.29V105.139C147.238 105.132 147.173 105.121 147.072 105.107C146.973 105.09 146.868 105.082 146.757 105.082C146.493 105.082 146.257 105.137 146.05 105.248C145.845 105.357 145.682 105.508 145.562 105.701C145.444 105.892 145.385 106.11 145.385 106.355V109.792H144.55ZM150.368 109.906C149.844 109.906 149.393 109.79 149.013 109.559C148.636 109.326 148.345 109 148.14 108.583C147.937 108.163 147.836 107.675 147.836 107.119C147.836 106.563 147.937 106.072 148.14 105.648C148.345 105.221 148.63 104.889 148.996 104.651C149.363 104.41 149.792 104.29 150.283 104.29C150.566 104.29 150.845 104.337 151.121 104.431C151.397 104.526 151.648 104.679 151.874 104.891C152.101 105.101 152.281 105.379 152.415 105.726C152.55 106.072 152.617 106.499 152.617 107.006V107.359H148.43V106.638H151.768C151.768 106.332 151.707 106.058 151.584 105.818C151.464 105.577 151.292 105.387 151.068 105.248C150.846 105.109 150.585 105.04 150.283 105.04C149.95 105.04 149.663 105.122 149.42 105.287C149.179 105.45 148.994 105.662 148.865 105.924C148.735 106.185 148.67 106.466 148.67 106.765V107.246C148.67 107.656 148.741 108.004 148.882 108.29C149.026 108.572 149.225 108.788 149.48 108.937C149.735 109.083 150.031 109.156 150.368 109.156C150.587 109.156 150.785 109.125 150.962 109.064C151.141 109 151.295 108.906 151.425 108.781C151.555 108.654 151.655 108.496 151.726 108.307L152.532 108.534C152.447 108.807 152.304 109.047 152.104 109.255C151.904 109.46 151.656 109.62 151.361 109.736C151.067 109.849 150.736 109.906 150.368 109.906ZM153.886 109.792V104.361H154.693V105.209H154.763C154.877 104.919 155.059 104.694 155.312 104.534C155.564 104.371 155.867 104.29 156.22 104.29C156.579 104.29 156.877 104.371 157.115 104.534C157.356 104.694 157.543 104.919 157.677 105.209H157.734C157.873 104.929 158.082 104.706 158.36 104.541C158.638 104.374 158.972 104.29 159.361 104.29C159.846 104.29 160.244 104.442 160.553 104.746C160.861 105.048 161.016 105.518 161.016 106.157V109.792H160.181V106.157C160.181 105.756 160.072 105.47 159.852 105.298C159.633 105.126 159.375 105.04 159.078 105.04C158.696 105.04 158.4 105.155 158.19 105.386C157.98 105.615 157.876 105.905 157.876 106.256V109.792H157.027V106.072C157.027 105.763 156.927 105.515 156.726 105.326C156.526 105.135 156.268 105.04 155.952 105.04C155.735 105.04 155.532 105.097 155.343 105.213C155.157 105.328 155.006 105.489 154.891 105.694C154.778 105.897 154.721 106.131 154.721 106.398V109.792H153.886ZM166.333 102.55V109.792H165.456V102.55H166.333ZM167.978 111.829V104.361H168.784V105.223H168.883C168.945 105.129 169.03 105.009 169.138 104.863C169.249 104.714 169.407 104.582 169.612 104.467C169.819 104.349 170.1 104.29 170.454 104.29C170.911 104.29 171.314 104.404 171.663 104.633C172.012 104.862 172.284 105.186 172.48 105.605C172.676 106.025 172.773 106.52 172.773 107.091C172.773 107.666 172.676 108.165 172.48 108.587C172.284 109.006 172.013 109.332 171.667 109.563C171.32 109.791 170.92 109.906 170.468 109.906C170.119 109.906 169.839 109.848 169.63 109.732C169.42 109.614 169.258 109.481 169.145 109.333C169.032 109.182 168.945 109.057 168.883 108.958H168.813V111.829H167.978ZM168.799 107.077C168.799 107.487 168.859 107.849 168.979 108.162C169.099 108.473 169.275 108.717 169.506 108.894C169.737 109.069 170.02 109.156 170.355 109.156C170.704 109.156 170.995 109.064 171.228 108.88C171.464 108.694 171.641 108.444 171.759 108.13C171.879 107.814 171.939 107.463 171.939 107.077C171.939 106.695 171.88 106.35 171.762 106.044C171.647 105.735 171.471 105.491 171.235 105.312C171.002 105.13 170.708 105.04 170.355 105.04C170.015 105.04 169.73 105.126 169.499 105.298C169.268 105.467 169.093 105.706 168.975 106.012C168.858 106.316 168.799 106.671 168.799 107.077ZM177.894 105.577L177.144 105.789C177.097 105.664 177.028 105.543 176.936 105.425C176.846 105.305 176.724 105.206 176.568 105.128C176.412 105.05 176.213 105.011 175.97 105.011C175.638 105.011 175.361 105.088 175.139 105.241C174.92 105.392 174.81 105.584 174.81 105.818C174.81 106.025 174.886 106.189 175.037 106.309C175.188 106.429 175.423 106.53 175.744 106.61L176.55 106.808C177.036 106.926 177.398 107.106 177.636 107.349C177.874 107.589 177.993 107.899 177.993 108.279C177.993 108.59 177.904 108.868 177.724 109.113C177.548 109.359 177.3 109.552 176.982 109.693C176.664 109.835 176.293 109.906 175.871 109.906C175.317 109.906 174.859 109.785 174.496 109.545C174.133 109.304 173.903 108.953 173.806 108.491L174.598 108.293C174.674 108.585 174.816 108.805 175.026 108.951C175.238 109.097 175.515 109.17 175.857 109.17C176.246 109.17 176.555 109.088 176.784 108.923C177.015 108.755 177.13 108.555 177.13 108.321C177.13 108.133 177.064 107.975 176.932 107.847C176.8 107.718 176.598 107.621 176.324 107.557L175.419 107.345C174.921 107.227 174.556 107.045 174.322 106.797C174.091 106.547 173.976 106.235 173.976 105.86C173.976 105.554 174.062 105.282 174.234 105.047C174.408 104.811 174.645 104.626 174.945 104.491C175.247 104.357 175.588 104.29 175.97 104.29C176.508 104.29 176.93 104.408 177.236 104.643C177.545 104.879 177.765 105.19 177.894 105.577ZM182.673 107.572V104.361H183.507V109.792H182.673V108.873H182.616C182.489 109.149 182.291 109.383 182.022 109.577C181.753 109.768 181.414 109.863 181.004 109.863C180.664 109.863 180.362 109.789 180.098 109.64C179.834 109.49 179.627 109.263 179.476 108.961C179.325 108.657 179.25 108.274 179.25 107.812V104.361H180.084V107.756C180.084 108.152 180.195 108.468 180.417 108.703C180.641 108.939 180.926 109.057 181.272 109.057C181.48 109.057 181.691 109.004 181.905 108.898C182.122 108.792 182.304 108.629 182.45 108.41C182.598 108.19 182.673 107.911 182.673 107.572ZM185.036 109.792V104.361H185.842V105.209H185.913C186.026 104.919 186.209 104.694 186.461 104.534C186.713 104.371 187.016 104.29 187.37 104.29C187.728 104.29 188.027 104.371 188.265 104.534C188.505 104.694 188.693 104.919 188.827 105.209H188.884C189.023 104.929 189.231 104.706 189.51 104.541C189.788 104.374 190.121 104.29 190.51 104.29C190.996 104.29 191.393 104.442 191.702 104.746C192.011 105.048 192.165 105.518 192.165 106.157V109.792H191.331V106.157C191.331 105.756 191.221 105.47 191.002 105.298C190.783 105.126 190.524 105.04 190.227 105.04C189.845 105.04 189.55 105.155 189.34 105.386C189.13 105.615 189.025 105.905 189.025 106.256V109.792H188.176V106.072C188.176 105.763 188.076 105.515 187.876 105.326C187.675 105.135 187.417 105.04 187.101 105.04C186.884 105.04 186.682 105.097 186.493 105.213C186.307 105.328 186.156 105.489 186.04 105.694C185.927 105.897 185.871 106.131 185.871 106.398V109.792H185.036Z" fill="#8E93A6"/>
<rect x="65.1201" y="148.392" width="31.805" height="31.805" rx="7.57261" fill="#2E90FA"/>
<path d="M128.543 165.135C127.355 165.135 126.297 164.931 125.369 164.523C124.446 164.109 123.716 163.541 123.18 162.82C122.65 162.093 122.377 161.255 122.361 160.306H125.83C125.851 160.703 125.981 161.053 126.22 161.356C126.464 161.653 126.788 161.884 127.191 162.048C127.594 162.213 128.047 162.295 128.551 162.295C129.077 162.295 129.541 162.202 129.944 162.016C130.347 161.831 130.663 161.573 130.891 161.244C131.119 160.916 131.233 160.536 131.233 160.107C131.233 159.672 131.111 159.287 130.867 158.953C130.628 158.613 130.283 158.348 129.832 158.157C129.387 157.966 128.856 157.871 128.241 157.871H126.721V155.34H128.241C128.761 155.34 129.22 155.25 129.618 155.07C130.021 154.89 130.334 154.64 130.557 154.322C130.779 153.998 130.891 153.622 130.891 153.192C130.891 152.784 130.793 152.426 130.596 152.118C130.405 151.805 130.135 151.561 129.785 151.386C129.44 151.211 129.037 151.123 128.575 151.123C128.108 151.123 127.681 151.208 127.294 151.378C126.907 151.542 126.597 151.778 126.363 152.086C126.13 152.394 126.005 152.754 125.989 153.168H122.687C122.703 152.229 122.971 151.402 123.491 150.686C124.011 149.97 124.711 149.41 125.591 149.007C126.477 148.598 127.477 148.394 128.591 148.394C129.716 148.394 130.7 148.598 131.543 149.007C132.387 149.415 133.042 149.967 133.509 150.662C133.981 151.351 134.214 152.126 134.209 152.985C134.214 153.898 133.93 154.659 133.357 155.269C132.79 155.879 132.05 156.266 131.137 156.431V156.558C132.336 156.712 133.249 157.128 133.875 157.807C134.506 158.481 134.819 159.324 134.813 160.337C134.819 161.266 134.551 162.091 134.01 162.812C133.474 163.533 132.734 164.101 131.79 164.515C130.846 164.929 129.763 165.135 128.543 165.135ZM137.043 162.048V159.335L143.847 148.617H146.186V152.373H144.801L140.513 159.16V159.287H150.18V162.048H137.043ZM144.865 164.913V161.221L144.929 160.019V148.617H148.159V164.913H144.865ZM158.865 165.271C157.497 165.265 156.319 164.929 155.332 164.26C154.351 163.592 153.595 162.624 153.065 161.356C152.539 160.088 152.28 158.563 152.285 156.781C152.285 155.004 152.547 153.489 153.073 152.237C153.603 150.985 154.359 150.033 155.34 149.381C156.327 148.723 157.502 148.394 158.865 148.394C160.228 148.394 161.401 148.723 162.382 149.381C163.369 150.038 164.127 150.993 164.658 152.245C165.188 153.492 165.451 155.004 165.446 156.781C165.446 158.568 165.18 160.096 164.65 161.364C164.125 162.632 163.371 163.6 162.39 164.268C161.409 164.936 160.234 165.271 158.865 165.271ZM158.865 162.414C159.799 162.414 160.544 161.945 161.101 161.006C161.658 160.067 161.934 158.658 161.929 156.781C161.929 155.545 161.801 154.516 161.547 153.693C161.297 152.871 160.942 152.253 160.48 151.839C160.024 151.426 159.486 151.219 158.865 151.219C157.937 151.219 157.194 151.683 156.637 152.611C156.08 153.54 155.799 154.929 155.794 156.781C155.794 158.033 155.919 159.078 156.168 159.916C156.422 160.748 156.781 161.374 157.242 161.793C157.704 162.207 158.245 162.414 158.865 162.414Z" fill="black"/>
<path d="M127.623 175.546C127.57 175.017 127.337 174.596 126.922 174.284C126.508 173.971 125.986 173.815 125.358 173.815C124.916 173.815 124.526 173.891 124.188 174.043C123.854 174.194 123.591 174.405 123.399 174.674C123.211 174.94 123.116 175.243 123.116 175.584C123.116 175.834 123.17 176.054 123.279 176.243C123.387 176.431 123.532 176.594 123.715 176.73C123.901 176.863 124.105 176.978 124.328 177.073C124.553 177.169 124.781 177.25 125.01 177.315L126.012 177.603C126.316 177.686 126.619 177.793 126.922 177.923C127.225 178.053 127.502 178.217 127.753 178.415C128.007 178.61 128.209 178.85 128.361 179.134C128.516 179.416 128.593 179.755 128.593 180.151C128.593 180.658 128.462 181.115 128.199 181.52C127.936 181.925 127.558 182.247 127.066 182.485C126.574 182.721 125.985 182.838 125.298 182.838C124.651 182.838 124.089 182.731 123.613 182.518C123.136 182.301 122.762 182.003 122.49 181.622C122.217 181.242 122.064 180.801 122.03 180.299H122.921C122.952 180.674 123.076 180.991 123.293 181.251C123.509 181.511 123.791 181.709 124.137 181.845C124.484 181.978 124.871 182.045 125.298 182.045C125.771 182.045 126.192 181.966 126.56 181.808C126.932 181.647 127.222 181.424 127.433 181.139C127.646 180.852 127.753 180.517 127.753 180.137C127.753 179.815 127.67 179.546 127.502 179.329C127.335 179.11 127.102 178.925 126.802 178.777C126.504 178.628 126.159 178.497 125.766 178.382L124.629 178.048C123.884 177.825 123.305 177.517 122.893 177.125C122.482 176.732 122.276 176.23 122.276 175.621C122.276 175.11 122.412 174.661 122.685 174.275C122.96 173.885 123.331 173.581 123.798 173.365C124.269 173.145 124.796 173.035 125.381 173.035C125.972 173.035 126.495 173.144 126.95 173.36C127.405 173.577 127.765 173.875 128.032 174.256C128.301 174.634 128.445 175.064 128.463 175.546H127.623ZM132.501 182.838C132.071 182.838 131.678 182.755 131.322 182.588C130.967 182.417 130.683 182.173 130.473 181.854C130.263 181.532 130.157 181.143 130.157 180.685C130.157 180.332 130.224 180.035 130.357 179.793C130.49 179.552 130.679 179.354 130.923 179.199C131.168 179.045 131.457 178.922 131.791 178.833C132.125 178.743 132.494 178.673 132.896 178.624C133.295 178.574 133.632 178.531 133.908 178.494C134.186 178.457 134.398 178.398 134.544 178.317C134.689 178.237 134.762 178.107 134.762 177.927V177.76C134.762 177.275 134.616 176.892 134.325 176.614C134.038 176.332 133.623 176.192 133.082 176.192C132.568 176.192 132.149 176.305 131.824 176.53C131.502 176.756 131.276 177.022 131.146 177.329L130.362 177.046C130.522 176.656 130.745 176.345 131.03 176.113C131.315 175.877 131.633 175.709 131.986 175.607C132.339 175.502 132.696 175.449 133.058 175.449C133.331 175.449 133.614 175.485 133.908 175.556C134.205 175.627 134.48 175.751 134.734 175.927C134.988 176.1 135.193 176.343 135.351 176.656C135.509 176.965 135.588 177.358 135.588 177.835V182.676H134.762V181.548H134.711C134.612 181.758 134.465 181.963 134.27 182.161C134.075 182.359 133.83 182.521 133.536 182.648C133.242 182.775 132.897 182.838 132.501 182.838ZM132.613 182.082C133.052 182.082 133.433 181.984 133.755 181.789C134.076 181.594 134.324 181.336 134.497 181.014C134.674 180.689 134.762 180.332 134.762 179.942V178.912C134.7 178.97 134.596 179.023 134.451 179.069C134.308 179.116 134.143 179.158 133.954 179.195C133.768 179.229 133.583 179.258 133.397 179.283C133.211 179.308 133.044 179.329 132.896 179.348C132.494 179.397 132.15 179.475 131.865 179.58C131.581 179.685 131.363 179.831 131.211 180.016C131.059 180.199 130.984 180.434 130.984 180.722C130.984 181.155 131.138 181.491 131.448 181.729C131.757 181.964 132.145 182.082 132.613 182.082ZM138.612 173.17V182.676H137.786V173.17H138.612ZM143.68 182.824C143.015 182.824 142.44 182.67 141.954 182.36C141.468 182.048 141.092 181.616 140.826 181.065C140.563 180.511 140.431 179.874 140.431 179.153C140.431 178.435 140.563 177.798 140.826 177.241C141.092 176.68 141.459 176.243 141.926 175.927C142.396 175.608 142.939 175.449 143.555 175.449C143.942 175.449 144.315 175.52 144.674 175.662C145.033 175.802 145.354 176.017 145.639 176.308C145.927 176.595 146.154 176.959 146.321 177.398C146.489 177.835 146.572 178.351 146.572 178.949V179.357H141.002V178.628H145.727C145.727 178.17 145.635 177.759 145.449 177.394C145.266 177.025 145.011 176.735 144.683 176.521C144.358 176.308 143.982 176.201 143.555 176.201C143.103 176.201 142.706 176.322 142.362 176.563C142.019 176.804 141.75 177.123 141.555 177.519C141.363 177.915 141.265 178.348 141.262 178.819V179.255C141.262 179.821 141.36 180.316 141.555 180.74C141.753 181.161 142.033 181.488 142.395 181.72C142.757 181.952 143.185 182.068 143.68 182.068C144.018 182.068 144.313 182.015 144.567 181.91C144.824 181.805 145.039 181.664 145.212 181.488C145.389 181.308 145.522 181.112 145.611 180.898L146.396 181.153C146.287 181.454 146.11 181.73 145.862 181.984C145.618 182.238 145.311 182.442 144.943 182.597C144.578 182.748 144.157 182.824 143.68 182.824Z" fill="#8E93A6"/>
<rect x="65.1201" y="213.122" width="31.805" height="31.805" rx="7.57261" fill="#12B76A"/>
<path d="M122.52 229.643V227.16L128.321 221.789C128.814 221.312 129.228 220.882 129.562 220.5C129.901 220.118 130.159 219.744 130.334 219.378C130.509 219.007 130.596 218.606 130.596 218.177C130.596 217.699 130.488 217.288 130.27 216.943C130.053 216.593 129.756 216.325 129.379 216.14C129.002 215.949 128.575 215.853 128.098 215.853C127.599 215.853 127.164 215.954 126.793 216.156C126.422 216.357 126.135 216.646 125.934 217.023C125.732 217.4 125.631 217.848 125.631 218.368H122.361C122.361 217.301 122.602 216.376 123.085 215.591C123.568 214.806 124.244 214.198 125.114 213.769C125.984 213.339 126.987 213.124 128.122 213.124C129.289 213.124 130.305 213.331 131.169 213.745C132.039 214.153 132.716 214.721 133.198 215.447C133.681 216.174 133.922 217.007 133.922 217.946C133.922 218.561 133.8 219.169 133.556 219.768C133.318 220.367 132.891 221.033 132.275 221.765C131.66 222.492 130.793 223.365 129.673 224.383L127.294 226.714V226.826H134.137V229.643H122.52ZM142.657 229.865C141.469 229.865 140.41 229.661 139.482 229.253C138.559 228.839 137.83 228.271 137.294 227.55C136.764 226.823 136.49 225.985 136.474 225.036H139.944C139.965 225.433 140.095 225.783 140.334 226.086C140.578 226.383 140.901 226.614 141.304 226.778C141.707 226.943 142.161 227.025 142.665 227.025C143.19 227.025 143.654 226.932 144.057 226.746C144.461 226.561 144.776 226.303 145.004 225.974C145.232 225.646 145.346 225.266 145.346 224.837C145.346 224.402 145.224 224.017 144.98 223.683C144.742 223.343 144.397 223.078 143.946 222.887C143.5 222.696 142.97 222.601 142.355 222.601H140.835V220.07H142.355C142.874 220.07 143.333 219.98 143.731 219.8C144.134 219.62 144.447 219.37 144.67 219.052C144.893 218.728 145.004 218.352 145.004 217.922C145.004 217.514 144.906 217.156 144.71 216.848C144.519 216.535 144.248 216.291 143.898 216.116C143.553 215.941 143.15 215.853 142.689 215.853C142.222 215.853 141.795 215.938 141.408 216.108C141.021 216.272 140.71 216.508 140.477 216.816C140.243 217.124 140.119 217.484 140.103 217.898H136.801C136.817 216.959 137.085 216.132 137.604 215.416C138.124 214.7 138.824 214.14 139.705 213.737C140.591 213.328 141.591 213.124 142.705 213.124C143.829 213.124 144.813 213.328 145.657 213.737C146.5 214.145 147.155 214.697 147.622 215.392C148.094 216.081 148.328 216.856 148.322 217.715C148.328 218.628 148.044 219.389 147.471 219.999C146.903 220.609 146.163 220.996 145.251 221.161V221.288C146.45 221.442 147.362 221.858 147.988 222.537C148.619 223.211 148.932 224.054 148.927 225.067C148.932 225.996 148.664 226.821 148.123 227.542C147.588 228.263 146.848 228.831 145.903 229.245C144.959 229.658 143.877 229.865 142.657 229.865ZM157.793 230.001C156.424 229.995 155.247 229.658 154.26 228.99C153.279 228.322 152.523 227.354 151.992 226.086C151.467 224.818 151.207 223.293 151.213 221.511C151.213 219.734 151.475 218.219 152 216.967C152.531 215.715 153.287 214.763 154.268 214.111C155.255 213.453 156.43 213.124 157.793 213.124C159.156 213.124 160.329 213.453 161.31 214.111C162.297 214.768 163.055 215.723 163.586 216.975C164.116 218.222 164.379 219.734 164.373 221.511C164.373 223.298 164.108 224.826 163.578 226.094C163.053 227.362 162.299 228.33 161.318 228.998C160.337 229.666 159.162 230.001 157.793 230.001ZM157.793 227.144C158.727 227.144 159.472 226.675 160.029 225.736C160.586 224.797 160.862 223.388 160.856 221.511C160.856 220.275 160.729 219.246 160.474 218.423C160.225 217.601 159.87 216.983 159.408 216.569C158.952 216.156 158.414 215.949 157.793 215.949C156.865 215.949 156.122 216.413 155.565 217.341C155.008 218.27 154.727 219.659 154.722 221.511C154.722 222.763 154.846 223.808 155.096 224.646C155.35 225.478 155.708 226.104 156.17 226.523C156.631 226.937 157.172 227.144 157.793 227.144Z" fill="black"/>
<path d="M122.476 237.9L125.446 246.278H125.53L128.5 237.9H129.41L125.952 247.406H125.024L121.566 237.9H122.476ZM130.877 247.406V240.277H131.708V247.406H130.877ZM131.299 239.052C131.129 239.052 130.984 238.994 130.863 238.88C130.742 238.762 130.682 238.621 130.682 238.457C130.682 238.293 130.742 238.154 130.863 238.04C130.984 237.922 131.129 237.863 131.299 237.863C131.469 237.863 131.615 237.922 131.735 238.04C131.856 238.154 131.917 238.293 131.917 238.457C131.917 238.621 131.856 238.762 131.735 238.88C131.615 238.994 131.469 239.052 131.299 239.052ZM136.775 247.555C136.11 247.555 135.534 247.4 135.048 247.091C134.563 246.778 134.187 246.346 133.92 245.796C133.657 245.242 133.526 244.604 133.526 243.883C133.526 243.165 133.657 242.528 133.92 241.971C134.187 241.411 134.553 240.973 135.021 240.657C135.491 240.339 136.034 240.179 136.65 240.179C137.036 240.179 137.409 240.251 137.768 240.393C138.127 240.532 138.449 240.747 138.734 241.038C139.022 241.326 139.249 241.689 139.416 242.129C139.583 242.565 139.667 243.082 139.667 243.679V244.088H134.097V243.359H138.822C138.822 242.901 138.729 242.489 138.543 242.124C138.361 241.756 138.106 241.465 137.778 241.252C137.453 241.038 137.077 240.931 136.65 240.931C136.198 240.931 135.8 241.052 135.457 241.293C135.113 241.535 134.844 241.853 134.649 242.25C134.457 242.646 134.36 243.079 134.357 243.549V243.985C134.357 244.552 134.454 245.047 134.649 245.471C134.847 245.892 135.127 246.218 135.489 246.45C135.851 246.682 136.28 246.798 136.775 246.798C137.112 246.798 137.408 246.746 137.662 246.64C137.918 246.535 138.133 246.394 138.307 246.218C138.483 246.039 138.616 245.842 138.706 245.629L139.49 245.884C139.382 246.184 139.204 246.461 138.957 246.715C138.712 246.968 138.406 247.173 138.038 247.327C137.672 247.479 137.252 247.555 136.775 247.555ZM143.07 247.406L140.916 240.277H141.789L143.479 246.158H143.539L145.224 240.277H146.101L147.772 246.144H147.837L149.526 240.277H150.399L148.245 247.406H147.391L145.702 241.563H145.614L143.924 247.406H143.07Z" fill="#8E93A6"/>
<rect x="65.1201" y="277.853" width="31.805" height="31.805" rx="7.57261" fill="#FFA800"/>
<path d="M129.61 278.077V294.373H126.164V281.348H126.069L122.337 283.687V280.631L126.371 278.077H129.61ZM139.562 294.596C138.336 294.596 137.246 294.397 136.291 293.999C135.342 293.596 134.597 293.047 134.056 292.352C133.515 291.657 133.244 290.869 133.244 289.989C133.244 289.31 133.398 288.687 133.705 288.119C134.018 287.546 134.443 287.071 134.979 286.695C135.514 286.313 136.114 286.069 136.777 285.963V285.851C135.907 285.676 135.201 285.254 134.66 284.586C134.119 283.912 133.849 283.13 133.849 282.239C133.849 281.395 134.095 280.645 134.589 279.987C135.082 279.324 135.758 278.804 136.618 278.427C137.482 278.045 138.464 277.855 139.562 277.855C140.66 277.855 141.639 278.045 142.498 278.427C143.363 278.809 144.041 279.332 144.535 279.995C145.028 280.653 145.277 281.401 145.283 282.239C145.277 283.135 145.002 283.918 144.455 284.586C143.909 285.254 143.209 285.676 142.355 285.851V285.963C143.007 286.069 143.599 286.313 144.129 286.695C144.665 287.071 145.089 287.546 145.402 288.119C145.72 288.687 145.882 289.31 145.888 289.989C145.882 290.869 145.609 291.657 145.068 292.352C144.527 293.047 143.779 293.596 142.824 293.999C141.875 294.397 140.787 294.596 139.562 294.596ZM139.562 292.066C140.108 292.066 140.586 291.967 140.994 291.771C141.402 291.57 141.721 291.294 141.949 290.944C142.182 290.588 142.299 290.18 142.299 289.718C142.299 289.246 142.18 288.83 141.941 288.469C141.702 288.103 141.379 287.817 140.97 287.61C140.562 287.397 140.092 287.291 139.562 287.291C139.037 287.291 138.567 287.397 138.153 287.61C137.74 287.817 137.413 288.103 137.175 288.469C136.941 288.83 136.825 289.246 136.825 289.718C136.825 290.18 136.939 290.588 137.167 290.944C137.395 291.294 137.716 291.57 138.13 291.771C138.543 291.967 139.021 292.066 139.562 292.066ZM139.562 284.785C140.018 284.785 140.424 284.692 140.779 284.506C141.135 284.321 141.413 284.064 141.615 283.735C141.816 283.406 141.917 283.027 141.917 282.597C141.917 282.172 141.816 281.801 141.615 281.483C141.413 281.159 141.137 280.907 140.787 280.727C140.437 280.541 140.029 280.448 139.562 280.448C139.1 280.448 138.692 280.541 138.336 280.727C137.981 280.907 137.702 281.159 137.501 281.483C137.305 281.801 137.207 282.172 137.207 282.597C137.207 283.027 137.307 283.406 137.509 283.735C137.71 284.064 137.989 284.321 138.344 284.506C138.7 284.692 139.106 284.785 139.562 284.785ZM154.686 294.731C153.317 294.726 152.14 294.389 151.153 293.721C150.172 293.052 149.416 292.084 148.885 290.816C148.36 289.549 148.1 288.023 148.105 286.241C148.105 284.464 148.368 282.95 148.893 281.698C149.424 280.446 150.18 279.494 151.161 278.841C152.148 278.183 153.323 277.855 154.686 277.855C156.049 277.855 157.221 278.183 158.203 278.841C159.189 279.499 159.948 280.454 160.478 281.706C161.009 282.952 161.272 284.464 161.266 286.241C161.266 288.029 161.001 289.556 160.471 290.824C159.945 292.092 159.192 293.06 158.211 293.729C157.229 294.397 156.054 294.731 154.686 294.731ZM154.686 291.875C155.619 291.875 156.365 291.405 156.922 290.466C157.479 289.527 157.755 288.119 157.749 286.241C157.749 285.005 157.622 283.976 157.367 283.154C157.118 282.332 156.763 281.714 156.301 281.3C155.845 280.886 155.306 280.679 154.686 280.679C153.758 280.679 153.015 281.143 152.458 282.072C151.901 283 151.62 284.39 151.614 286.241C151.614 287.493 151.739 288.538 151.988 289.376C152.243 290.209 152.601 290.835 153.063 291.254C153.524 291.668 154.065 291.875 154.686 291.875Z" fill="black"/>
<path d="M122.462 312.137V302.631H127.976V303.411H123.33V306.989H127.683V307.769H123.33V311.357H128.069V312.137H122.462ZM130.051 312.137V305.007H130.854V306.103H130.914C131.056 305.744 131.304 305.454 131.657 305.235C132.012 305.012 132.415 304.901 132.863 304.901C132.931 304.901 133.007 304.902 133.091 304.905C133.174 304.908 133.244 304.911 133.3 304.915V305.755C133.263 305.748 133.198 305.739 133.105 305.727C133.012 305.714 132.911 305.708 132.803 305.708C132.432 305.708 132.101 305.787 131.81 305.945C131.522 306.1 131.295 306.315 131.127 306.59C130.96 306.865 130.877 307.18 130.877 307.532V312.137H130.051ZM135.536 307.681V312.137H134.71V305.007H135.513V306.126H135.587C135.754 305.761 136.014 305.468 136.367 305.249C136.722 305.026 137.162 304.915 137.685 304.915C138.164 304.915 138.585 305.015 138.947 305.216C139.312 305.414 139.596 305.707 139.797 306.093C140.001 306.48 140.103 306.955 140.103 307.518V312.137H139.277V307.569C139.277 306.985 139.113 306.522 138.785 306.182C138.46 305.841 138.024 305.671 137.476 305.671C137.101 305.671 136.769 305.752 136.478 305.912C136.187 306.073 135.957 306.305 135.786 306.609C135.619 306.909 135.536 307.266 135.536 307.681ZM142.288 312.137V305.007H143.119V312.137H142.288ZM142.71 303.782C142.54 303.782 142.395 303.725 142.274 303.61C142.153 303.493 142.093 303.352 142.093 303.188C142.093 303.024 142.153 302.885 142.274 302.77C142.395 302.653 142.54 302.594 142.71 302.594C142.881 302.594 143.026 302.653 143.147 302.77C143.267 302.885 143.328 303.024 143.328 303.188C143.328 303.352 143.267 303.493 143.147 303.61C143.026 303.725 142.881 303.782 142.71 303.782ZM146.13 307.681V312.137H145.304V305.007H146.107V306.126H146.181C146.348 305.761 146.608 305.468 146.961 305.249C147.317 305.026 147.756 304.915 148.279 304.915C148.759 304.915 149.18 305.015 149.542 305.216C149.907 305.414 150.19 305.707 150.391 306.093C150.595 306.48 150.697 306.955 150.697 307.518V312.137H149.871V307.569C149.871 306.985 149.707 306.522 149.379 306.182C149.054 305.841 148.618 305.671 148.07 305.671C147.696 305.671 147.363 305.752 147.072 305.912C146.781 306.073 146.551 306.305 146.381 306.609C146.214 306.909 146.13 307.266 146.13 307.681ZM155.593 314.959C155.107 314.959 154.682 314.895 154.317 314.768C153.951 314.645 153.643 314.475 153.393 314.258C153.142 314.041 152.947 313.798 152.808 313.529L153.486 313.084C153.588 313.263 153.724 313.439 153.894 313.613C154.067 313.786 154.292 313.93 154.567 314.044C154.846 314.159 155.188 314.216 155.593 314.216C156.224 314.216 156.733 314.058 157.12 313.743C157.51 313.427 157.705 312.937 157.705 312.271V310.665H157.631C157.535 310.882 157.397 311.099 157.217 311.315C157.038 311.529 156.803 311.707 156.512 311.849C156.224 311.991 155.867 312.062 155.44 312.062C154.87 312.062 154.364 311.922 153.922 311.64C153.483 311.358 153.136 310.956 152.882 310.433C152.632 309.907 152.506 309.281 152.506 308.553C152.506 307.832 152.629 307.198 152.873 306.65C153.121 306.103 153.466 305.676 153.908 305.369C154.351 305.063 154.866 304.91 155.454 304.91C155.89 304.91 156.252 304.987 156.54 305.142C156.828 305.294 157.058 305.482 157.231 305.708C157.408 305.934 157.545 306.154 157.644 306.367H157.728V305.007H158.536V312.322C158.536 312.926 158.407 313.422 158.15 313.812C157.894 314.202 157.544 314.49 157.101 314.676C156.659 314.864 156.156 314.959 155.593 314.959ZM155.537 311.306C155.995 311.306 156.387 311.196 156.712 310.976C157.036 310.754 157.286 310.435 157.459 310.02C157.632 309.606 157.719 309.112 157.719 308.54C157.719 307.983 157.634 307.489 157.463 307.059C157.293 306.626 157.046 306.285 156.721 306.038C156.399 305.787 156.004 305.662 155.537 305.662C155.061 305.662 154.658 305.79 154.33 306.047C154.002 306.304 153.755 306.65 153.588 307.087C153.421 307.52 153.337 308.004 153.337 308.54C153.337 309.084 153.422 309.565 153.592 309.983C153.763 310.398 154.012 310.723 154.34 310.958C154.668 311.19 155.067 311.306 155.537 311.306Z" fill="#8E93A6"/>
<circle cx="480.235" cy="111.546" r="1.21401" fill="#6A6A6A"/>
<circle cx="480.235" cy="115.795" r="1.21401" fill="#6A6A6A"/>
<circle cx="480.235" cy="120.044" r="1.21401" fill="#6A6A6A"/>
<rect x="210.096" y="243.481" width="14.5502" height="56.7457" fill="#FFA800"/>
<rect x="210.096" y="243.481" width="14.5502" height="24.4683" fill="#2E90FA"/>
<rect width="14.5502" height="14.0563" transform="matrix(1 0 0 -1 210.096 282.005)" fill="#12B76A"/>
<path d="M210.507 305.729H211.578L214.095 311.878H214.182L216.699 305.729H217.77V313.137H216.931V307.509H216.859L214.544 313.137H213.734L211.419 307.509H211.346V313.137H210.507V305.729ZM221.71 313.252C221.208 313.252 220.768 313.133 220.39 312.894C220.013 312.656 219.719 312.322 219.507 311.893C219.297 311.463 219.192 310.962 219.192 310.388C219.192 309.809 219.297 309.304 219.507 308.872C219.719 308.441 220.013 308.106 220.39 307.867C220.768 307.628 221.208 307.509 221.71 307.509C222.211 307.509 222.65 307.628 223.026 307.867C223.405 308.106 223.699 308.441 223.909 308.872C224.121 309.304 224.227 309.809 224.227 310.388C224.227 310.962 224.121 311.463 223.909 311.893C223.699 312.322 223.405 312.656 223.026 312.894C222.65 313.133 222.211 313.252 221.71 313.252ZM221.71 312.486C222.091 312.486 222.404 312.388 222.65 312.193C222.896 311.997 223.078 311.741 223.196 311.422C223.314 311.104 223.373 310.759 223.373 310.388C223.373 310.017 223.314 309.671 223.196 309.35C223.078 309.029 222.896 308.77 222.65 308.572C222.404 308.375 222.091 308.276 221.71 308.276C221.329 308.276 221.015 308.375 220.769 308.572C220.523 308.77 220.341 309.029 220.223 309.35C220.105 309.671 220.046 310.017 220.046 310.388C220.046 310.759 220.105 311.104 220.223 311.422C220.341 311.741 220.523 311.997 220.769 312.193C221.015 312.388 221.329 312.486 221.71 312.486Z" fill="black"/>
<line x1="487.519" y1="269.429" x2="193.12" y2="269.429" stroke="#8A8A8A" stroke-width="0.485006" stroke-dasharray="0.97 0.97"/>
<line x1="487.519" y1="243.723" x2="193.12" y2="243.723" stroke="#8A8A8A" stroke-width="0.485006" stroke-dasharray="0.97 0.97"/>
<line x1="487.519" y1="218.018" x2="193.12" y2="218.018" stroke="#8A8A8A" stroke-width="0.485006" stroke-dasharray="0.97 0.97"/>
<line x1="487.519" y1="192.313" x2="193.12" y2="192.313" stroke="#8A8A8A" stroke-width="0.485006" stroke-dasharray="0.97 0.97"/>
<line x1="487.519" y1="166.608" x2="193.12" y2="166.608" stroke="#8A8A8A" stroke-width="0.485006" stroke-dasharray="0.97 0.97"/>
<rect x="252.291" y="214.381" width="14.5502" height="85.846" fill="#FFA800"/>
<rect x="252.291" y="214.381" width="14.5502" height="37.0162" fill="#2E90FA"/>
<rect width="14.5502" height="21.2646" transform="matrix(1 0 0 -1 252.291 272.662)" fill="#12B76A"/>
<path d="M254.238 306.525V305.729H259.794V306.525H257.464V313.137H256.567V306.525H254.238ZM263.807 310.865V307.581H264.661V313.137H263.807V312.196H263.749C263.619 312.478 263.417 312.718 263.142 312.916C262.867 313.111 262.52 313.209 262.1 313.209C261.753 313.209 261.444 313.133 261.174 312.981C260.904 312.827 260.692 312.595 260.538 312.287C260.383 311.976 260.306 311.584 260.306 311.111V307.581H261.16V311.053C261.16 311.458 261.273 311.782 261.5 312.023C261.729 312.264 262.021 312.384 262.375 312.384C262.587 312.384 262.803 312.33 263.022 312.222C263.244 312.113 263.43 311.947 263.579 311.723C263.731 311.498 263.807 311.213 263.807 310.865Z" fill="black"/>
<rect x="294.486" y="153.27" width="14.5502" height="146.957" fill="#FFA800"/>
<rect x="294.486" y="153.27" width="14.5502" height="63.3666" fill="#2E90FA"/>
<rect width="14.5502" height="36.4021" transform="matrix(1 0 0 -1 294.486 253.039)" fill="#12B76A"/>
<path d="M296.243 313.137L294.218 305.729H295.129L296.677 311.762H296.75L298.327 305.729H299.339L300.916 311.762H300.989L302.537 305.729H303.448L301.423 313.137H300.497L298.862 307.234H298.804L297.169 313.137H296.243ZM306.262 313.252C305.727 313.252 305.265 313.134 304.877 312.898C304.491 312.659 304.193 312.327 303.984 311.9C303.776 311.471 303.672 310.971 303.672 310.402C303.672 309.833 303.776 309.332 303.984 308.898C304.193 308.461 304.485 308.121 304.859 307.878C305.235 307.632 305.674 307.509 306.175 307.509C306.465 307.509 306.75 307.557 307.033 307.654C307.315 307.75 307.571 307.907 307.803 308.124C308.034 308.338 308.219 308.623 308.356 308.977C308.494 309.332 308.563 309.768 308.563 310.287V310.648H304.28V309.91H307.694C307.694 309.597 307.632 309.317 307.506 309.071C307.383 308.825 307.207 308.631 306.978 308.489C306.752 308.347 306.484 308.276 306.175 308.276C305.835 308.276 305.541 308.36 305.293 308.529C305.047 308.695 304.858 308.912 304.725 309.18C304.592 309.448 304.526 309.734 304.526 310.041V310.533C304.526 310.952 304.598 311.308 304.743 311.6C304.89 311.889 305.094 312.11 305.354 312.261C305.615 312.411 305.917 312.486 306.262 312.486C306.486 312.486 306.689 312.454 306.87 312.392C307.053 312.327 307.211 312.23 307.344 312.102C307.476 311.972 307.579 311.811 307.651 311.618L308.476 311.849C308.389 312.129 308.243 312.375 308.038 312.587C307.833 312.797 307.58 312.961 307.279 313.079C306.977 313.195 306.638 313.252 306.262 313.252Z" fill="black"/>
<rect x="336.682" y="132.415" width="14.5502" height="167.812" fill="#FFA800"/>
<rect x="336.682" y="132.415" width="14.5502" height="72.3593" fill="#2E90FA"/>
<rect width="14.5502" height="41.5681" transform="matrix(1 0 0 -1 336.682 246.342)" fill="#12B76A"/>
<path d="M338.143 306.525V305.729H343.699V306.525H341.37V313.137H340.473V306.525H338.143ZM345.821 309.795V313.137H344.967V305.729H345.821V308.449H345.893C346.024 308.162 346.219 307.934 346.479 307.766C346.742 307.594 347.092 307.509 347.528 307.509C347.907 307.509 348.238 307.585 348.523 307.737C348.807 307.886 349.028 308.116 349.185 308.428C349.344 308.736 349.423 309.129 349.423 309.607V313.137H348.57V309.665C348.57 309.223 348.455 308.882 348.226 308.641C348 308.397 347.685 308.276 347.282 308.276C347.002 308.276 346.752 308.335 346.53 308.453C346.31 308.571 346.137 308.743 346.009 308.97C345.884 309.197 345.821 309.472 345.821 309.795Z" fill="black"/>
<rect x="378.393" y="200.315" width="14.5502" height="99.9111" fill="#FFA800"/>
<rect x="378.393" y="200.315" width="14.5502" height="43.0809" fill="#2E90FA"/>
<rect width="14.5502" height="24.7486" transform="matrix(1 0 0 -1 378.393 268.145)" fill="#12B76A"/>
<path d="M381.714 313.137V305.729H386.156V306.525H382.611V309.028H385.823V309.824H382.611V313.137H381.714ZM387.517 313.137V307.581H388.341V308.42H388.399C388.501 308.145 388.684 307.922 388.949 307.751C389.214 307.58 389.513 307.494 389.846 307.494C389.909 307.494 389.987 307.496 390.081 307.498C390.175 307.5 390.246 307.504 390.294 307.509V308.377C390.266 308.37 390.199 308.359 390.096 308.344C389.994 308.327 389.887 308.319 389.774 308.319C389.504 308.319 389.262 308.376 389.05 308.489C388.841 308.6 388.674 308.754 388.551 308.952C388.431 309.147 388.37 309.37 388.37 309.621V313.137H387.517Z" fill="black"/>
<rect x="420.103" y="221.171" width="14.5502" height="79.0559" fill="#FFA800"/>
<rect x="420.103" y="221.171" width="14.5502" height="34.0883" fill="#2E90FA"/>
<rect width="14.5502" height="19.5827" transform="matrix(1 0 0 -1 420.103 274.842)" fill="#12B76A"/>
<path d="M426.021 307.581C425.978 307.215 425.802 306.93 425.493 306.728C425.184 306.525 424.806 306.424 424.357 306.424C424.029 306.424 423.742 306.477 423.497 306.583C423.253 306.689 423.063 306.835 422.925 307.021C422.79 307.206 422.723 307.417 422.723 307.654C422.723 307.851 422.77 308.021 422.864 308.164C422.96 308.303 423.083 308.42 423.233 308.514C423.382 308.606 423.539 308.682 423.703 308.742C423.867 308.8 424.017 308.847 424.155 308.883L424.907 309.086C425.1 309.136 425.315 309.206 425.551 309.296C425.79 309.385 426.018 309.507 426.235 309.661C426.454 309.813 426.635 310.008 426.777 310.247C426.919 310.486 426.99 310.779 426.99 311.126C426.99 311.526 426.886 311.888 426.676 312.211C426.468 312.534 426.165 312.791 425.764 312.981C425.366 313.172 424.883 313.267 424.314 313.267C423.783 313.267 423.324 313.181 422.936 313.01C422.55 312.839 422.246 312.6 422.024 312.294C421.805 311.988 421.681 311.632 421.652 311.227H422.578C422.602 311.507 422.696 311.738 422.86 311.921C423.026 312.102 423.236 312.237 423.489 312.327C423.745 312.413 424.02 312.457 424.314 312.457C424.656 312.457 424.964 312.401 425.236 312.29C425.509 312.177 425.725 312.02 425.884 311.82C426.043 311.618 426.122 311.381 426.122 311.111C426.122 310.865 426.054 310.665 425.916 310.511C425.779 310.357 425.598 310.231 425.374 310.135C425.149 310.038 424.907 309.954 424.647 309.882L423.735 309.621C423.157 309.455 422.698 309.217 422.361 308.909C422.023 308.6 421.854 308.196 421.854 307.697C421.854 307.282 421.967 306.921 422.191 306.612C422.418 306.301 422.721 306.06 423.102 305.889C423.486 305.715 423.914 305.628 424.386 305.628C424.864 305.628 425.288 305.714 425.659 305.885C426.031 306.054 426.325 306.285 426.542 306.579C426.761 306.873 426.877 307.207 426.889 307.581H426.021ZM429.984 313.267C429.632 313.267 429.313 313.201 429.026 313.068C428.739 312.933 428.511 312.739 428.342 312.486C428.173 312.23 428.089 311.921 428.089 311.56C428.089 311.241 428.152 310.983 428.277 310.786C428.403 310.586 428.57 310.429 428.78 310.316C428.99 310.202 429.221 310.118 429.474 310.062C429.73 310.005 429.987 309.959 430.245 309.925C430.582 309.882 430.856 309.849 431.066 309.827C431.278 309.803 431.432 309.763 431.529 309.708C431.628 309.652 431.677 309.556 431.677 309.419V309.39C431.677 309.033 431.579 308.755 431.384 308.558C431.191 308.36 430.898 308.261 430.505 308.261C430.098 308.261 429.778 308.35 429.547 308.529C429.315 308.707 429.152 308.898 429.058 309.1L428.248 308.811C428.393 308.473 428.586 308.211 428.827 308.022C429.07 307.832 429.336 307.699 429.623 307.625C429.912 307.547 430.197 307.509 430.476 307.509C430.655 307.509 430.86 307.531 431.091 307.574C431.325 307.615 431.55 307.701 431.767 307.831C431.987 307.961 432.169 308.157 432.314 308.42C432.458 308.683 432.531 309.035 432.531 309.476V313.137H431.677V312.384H431.634C431.576 312.505 431.479 312.634 431.344 312.771C431.209 312.909 431.03 313.026 430.805 313.122C430.581 313.219 430.307 313.267 429.984 313.267ZM430.115 312.5C430.452 312.5 430.737 312.434 430.968 312.301C431.202 312.169 431.378 311.997 431.496 311.788C431.617 311.578 431.677 311.357 431.677 311.126V310.344C431.641 310.388 431.561 310.428 431.438 310.464C431.318 310.498 431.178 310.528 431.019 310.554C430.862 310.578 430.709 310.6 430.559 310.619C430.412 310.636 430.293 310.651 430.201 310.663C429.979 310.692 429.772 310.739 429.579 310.804C429.389 310.867 429.234 310.962 429.116 311.09C429.001 311.215 428.943 311.386 428.943 311.603C428.943 311.9 429.052 312.124 429.272 312.276C429.494 312.425 429.775 312.5 430.115 312.5Z" fill="black"/>
<rect x="461.813" y="204.681" width="14.5502" height="95.5461" fill="#FFA800"/>
<rect x="461.813" y="204.681" width="14.5502" height="41.1988" fill="#2E90FA"/>
<rect width="14.5502" height="23.6674" transform="matrix(1 0 0 -1 461.813 269.547)" fill="#12B76A"/>
<path d="M467.731 307.581C467.688 307.215 467.512 306.93 467.203 306.728C466.894 306.525 466.516 306.424 466.067 306.424C465.739 306.424 465.452 306.477 465.207 306.583C464.963 306.689 464.772 306.835 464.635 307.021C464.5 307.206 464.432 307.417 464.432 307.654C464.432 307.851 464.48 308.021 464.574 308.164C464.67 308.303 464.793 308.42 464.942 308.514C465.092 308.606 465.249 308.682 465.413 308.742C465.577 308.8 465.727 308.847 465.865 308.883L466.617 309.086C466.81 309.136 467.025 309.206 467.261 309.296C467.5 309.385 467.727 309.507 467.944 309.661C468.164 309.813 468.345 310.008 468.487 310.247C468.629 310.486 468.7 310.779 468.7 311.126C468.7 311.526 468.596 311.888 468.386 312.211C468.178 312.534 467.875 312.791 467.474 312.981C467.076 313.172 466.593 313.267 466.024 313.267C465.493 313.267 465.034 313.181 464.646 313.01C464.26 312.839 463.956 312.6 463.734 312.294C463.515 311.988 463.391 311.632 463.362 311.227H464.288C464.312 311.507 464.406 311.738 464.57 311.921C464.736 312.102 464.946 312.237 465.199 312.327C465.455 312.413 465.73 312.457 466.024 312.457C466.366 312.457 466.674 312.401 466.946 312.29C467.219 312.177 467.435 312.02 467.594 311.82C467.753 311.618 467.832 311.381 467.832 311.111C467.832 310.865 467.764 310.665 467.626 310.511C467.489 310.357 467.308 310.231 467.084 310.135C466.859 310.038 466.617 309.954 466.357 309.882L465.445 309.621C464.867 309.455 464.408 309.217 464.071 308.909C463.733 308.6 463.564 308.196 463.564 307.697C463.564 307.282 463.677 306.921 463.901 306.612C464.127 306.301 464.431 306.06 464.812 305.889C465.196 305.715 465.624 305.628 466.096 305.628C466.574 305.628 466.998 305.714 467.369 305.885C467.741 306.054 468.035 306.285 468.252 306.579C468.471 306.873 468.587 307.207 468.599 307.581H467.731ZM473.561 310.865V307.581H474.414V313.137H473.561V312.196H473.503C473.373 312.478 473.17 312.718 472.895 312.916C472.62 313.111 472.273 313.209 471.853 313.209C471.506 313.209 471.198 313.133 470.927 312.981C470.657 312.827 470.445 312.595 470.291 312.287C470.137 311.976 470.059 311.584 470.059 311.111V307.581H470.913V311.053C470.913 311.458 471.026 311.782 471.253 312.023C471.482 312.264 471.774 312.384 472.128 312.384C472.34 312.384 472.556 312.33 472.776 312.222C472.998 312.113 473.183 311.947 473.333 311.723C473.485 311.498 473.561 311.213 473.561 310.865Z" fill="black"/>
</g>
<defs>
<filter id="filter0_d_511_3600" x="0.100014" y="0.100014" width="647.543" height="465.8" filterUnits="userSpaceOnUse" color-interpolation-filters="sRGB">
<feFlood flood-opacity="0" result="BackgroundImageFix"/>
<feColorMatrix in="SourceAlpha" type="matrix" values="0 0 0 0 0 0 0 0 0 0 0 0 0 0 0 0 0 0 127 0" result="hardAlpha"/>
<feOffset dx="49" dy="33"/>
<feGaussianBlur stdDeviation="41.45"/>
<feComposite in2="hardAlpha" operator="out"/>
<feColorMatrix type="matrix" values="0 0 0 0 0 0 0 0 0 0 0 0 0 0 0 0 0 0 0.1 0"/>
<feBlend mode="normal" in2="BackgroundImageFix" result="effect1_dropShadow_511_3600"/>
<feBlend mode="normal" in="SourceGraphic" in2="effect1_dropShadow_511_3600" result="shape"/>
</filter>
</defs>
</svg>
